<svg id="logo" width="525" height="274" viewBox="0 0 525 274" fill="none" xmlns="http://www.w3.org/2000/svg">
            <!--Hi,   START-->
            <path d="M28.1875 35H23.6641V19.2266H6.46094V35H1.96094V0.875H6.46094V15.5469H23.6641V0.875H28.1875V35Z" stroke=#ef0d33 stroke-width="2"/>
            <path d="M40.2109 35H35.875V9.64062H40.2109V35ZM35.5234 2.91406C35.5234 2.21094 35.7344 1.61719 36.1562 1.13281C36.5938 0.648438 37.2344 0.40625 38.0781 0.40625C38.9219 0.40625 39.5625 0.648438 40 1.13281C40.4375 1.61719 40.6562 2.21094 40.6562 2.91406C40.6562 3.61719 40.4375 4.20312 40 4.67188C39.5625 5.14062 38.9219 5.375 38.0781 5.375C37.2344 5.375 36.5938 5.14062 36.1562 4.67188C35.7344 4.20312 35.5234 3.61719 35.5234 2.91406Z" stroke=#ef0d33 stroke-width="2"/>
            <path d="M47.0312 41.7969L44.5703 40.1094C46.0391 38.0625 46.8047 35.9531 46.8672 33.7812V29.8672H51.1094V33.2656C51.1094 34.8438 50.7188 36.4219 49.9375 38C49.1719 39.5781 48.2031 40.8438 47.0312 41.7969Z" stroke=#ef0d33 stroke-width="2"/>
            <!-- "I am"   START-->
            <path d="M74.0078 35H69.5078V0.875H74.0078V35Z" stroke="white" stroke-width="2"/>
            <path d="M109.141 35C108.891 34.5 108.688 33.6094 108.531 32.3281C106.516 34.4219 104.109 35.4688 101.312 35.4688C98.8125 35.4688 96.7578 34.7656 95.1484 33.3594C93.5547 31.9375 92.7578 30.1406 92.7578 27.9688C92.7578 25.3281 93.7578 23.2812 95.7578 21.8281C97.7734 20.3594 100.602 19.625 104.242 19.625H108.461V17.6328C108.461 16.1172 108.008 14.9141 107.102 14.0234C106.195 13.1172 104.859 12.6641 103.094 12.6641C101.547 12.6641 100.25 13.0547 99.2031 13.8359C98.1562 14.6172 97.6328 15.5625 97.6328 16.6719H93.2734C93.2734 15.4062 93.7188 14.1875 94.6094 13.0156C95.5156 11.8281 96.7344 10.8906 98.2656 10.2031C99.8125 9.51562 101.508 9.17188 103.352 9.17188C106.273 9.17188 108.562 9.90625 110.219 11.375C111.875 12.8281 112.734 14.8359 112.797 17.3984V29.0703C112.797 31.3984 113.094 33.25 113.688 34.625V35H109.141ZM101.945 31.6953C103.305 31.6953 104.594 31.3438 105.812 30.6406C107.031 29.9375 107.914 29.0234 108.461 27.8984V22.6953H105.062C99.75 22.6953 97.0938 24.25 97.0938 27.3594C97.0938 28.7188 97.5469 29.7812 98.4531 30.5469C99.3594 31.3125 100.523 31.6953 101.945 31.6953Z" stroke="white" stroke-width="2"/>
            <path d="M123.672 9.64062L123.789 12.4531C125.648 10.2656 128.156 9.17188 131.312 9.17188C134.859 9.17188 137.273 10.5312 138.555 13.25C139.398 12.0312 140.492 11.0469 141.836 10.2969C143.195 9.54688 144.797 9.17188 146.641 9.17188C152.203 9.17188 155.031 12.1172 155.125 18.0078V35H150.789V18.2656C150.789 16.4531 150.375 15.1016 149.547 14.2109C148.719 13.3047 147.328 12.8516 145.375 12.8516C143.766 12.8516 142.43 13.3359 141.367 14.3047C140.305 15.2578 139.688 16.5469 139.516 18.1719V35H135.156V18.3828C135.156 14.6953 133.352 12.8516 129.742 12.8516C126.898 12.8516 124.953 14.0625 123.906 16.4844V35H119.57V9.64062H123.672Z" stroke="white" stroke-width="2"/>
            <path d="M26.0312 140.578C18.3125 138.359 12.6875 135.641 9.15625 132.422C5.65625 129.172 3.90625 125.172 3.90625 120.422C3.90625 115.047 6.04688 110.609 10.3281 107.109C14.6406 103.578 20.2344 101.812 27.1094 101.812C31.7969 101.812 35.9688 102.719 39.625 104.531C43.3125 106.344 46.1562 108.844 48.1562 112.031C50.1875 115.219 51.2031 118.703 51.2031 122.484H42.1562C42.1562 118.359 40.8438 115.125 38.2188 112.781C35.5938 110.406 31.8906 109.219 27.1094 109.219C22.6719 109.219 19.2031 110.203 16.7031 112.172C14.2344 114.109 13 116.812 13 120.281C13 123.062 14.1719 125.422 16.5156 127.359C18.8906 129.266 22.9062 131.016 28.5625 132.609C34.25 134.203 38.6875 135.969 41.875 137.906C45.0938 139.812 47.4688 142.047 49 144.609C50.5625 147.172 51.3438 150.188 51.3438 153.656C51.3438 159.188 49.1875 163.625 44.875 166.969C40.5625 170.281 34.7969 171.938 27.5781 171.938C22.8906 171.938 18.5156 171.047 14.4531 169.266C10.3906 167.453 7.25 164.984 5.03125 161.859C2.84375 158.734 1.75 155.188 1.75 151.219H10.7969C10.7969 155.344 12.3125 158.609 15.3438 161.016C18.4062 163.391 22.4844 164.578 27.5781 164.578C32.3281 164.578 35.9688 163.609 38.5 161.672C41.0312 159.734 42.2969 157.094 42.2969 153.75C42.2969 150.406 41.125 147.828 38.7812 146.016C36.4375 144.172 32.1875 142.359 26.0312 140.578Z" stroke="white" stroke-width="2"/>
            <path d="M92.875 165.984C89.5 169.953 84.5469 171.938 78.0156 171.938C72.6094 171.938 68.4844 170.375 65.6406 167.25C62.8281 164.094 61.4062 159.438 61.375 153.281V120.281H70.0469V153.047C70.0469 160.734 73.1719 164.578 79.4219 164.578C86.0469 164.578 90.4531 162.109 92.6406 157.172V120.281H101.312V171H93.0625L92.875 165.984Z" stroke="white" stroke-width="2"/>
            <path d="M123.953 171H115.281V99H123.953V171Z" stroke="white" stroke-width="2"/>
            <path d="M149.641 108V120.281H159.109V126.984H149.641V158.438C149.641 160.469 150.062 162 150.906 163.031C151.75 164.031 153.188 164.531 155.219 164.531C156.219 164.531 157.594 164.344 159.344 163.969V171C157.062 171.625 154.844 171.938 152.688 171.938C148.812 171.938 145.891 170.766 143.922 168.422C141.953 166.078 140.969 162.75 140.969 158.438V126.984H131.734V120.281H140.969V108H149.641Z" stroke="white" stroke-width="2"/>
            <path d="M200.594 171C200.094 170 199.688 168.219 199.375 165.656C195.344 169.844 190.531 171.938 184.938 171.938C179.938 171.938 175.828 170.531 172.609 167.719C169.422 164.875 167.828 161.281 167.828 156.938C167.828 151.656 169.828 147.562 173.828 144.656C177.859 141.719 183.516 140.25 190.797 140.25H199.234V136.266C199.234 133.234 198.328 130.828 196.516 129.047C194.703 127.234 192.031 126.328 188.5 126.328C185.406 126.328 182.812 127.109 180.719 128.672C178.625 130.234 177.578 132.125 177.578 134.344H168.859C168.859 131.812 169.75 129.375 171.531 127.031C173.344 124.656 175.781 122.781 178.844 121.406C181.938 120.031 185.328 119.344 189.016 119.344C194.859 119.344 199.438 120.812 202.75 123.75C206.062 126.656 207.781 130.672 207.906 135.797V159.141C207.906 163.797 208.5 167.5 209.688 170.25V171H200.594ZM186.203 164.391C188.922 164.391 191.5 163.688 193.938 162.281C196.375 160.875 198.141 159.047 199.234 156.797V146.391H192.438C181.812 146.391 176.5 149.5 176.5 155.719C176.5 158.438 177.406 160.562 179.219 162.094C181.031 163.625 183.359 164.391 186.203 164.391Z" stroke="white" stroke-width="2"/>
            <path d="M229.703 120.281L229.984 126.656C233.859 121.781 238.922 119.344 245.172 119.344C255.891 119.344 261.297 125.391 261.391 137.484V171H252.719V137.438C252.688 133.781 251.844 131.078 250.188 129.328C248.562 127.578 246.016 126.703 242.547 126.703C239.734 126.703 237.266 127.453 235.141 128.953C233.016 130.453 231.359 132.422 230.172 134.859V171H221.5V120.281H229.703Z" stroke="white" stroke-width="2"/>
            <path d="M15.0859 257.697H4.3457V269H0.970703V243.406H16.8262V246.184H4.3457V254.938H15.0859V257.697Z" stroke=#ef0d33 stroke-width="2"/>
            <path d="M29.0957 252.898C28.6035 252.816 28.0703 252.775 27.4961 252.775C25.3633 252.775 23.916 253.684 23.1543 255.5V269H19.9023V249.98H23.0664L23.1191 252.178C24.1855 250.479 25.6973 249.629 27.6543 249.629C28.2871 249.629 28.7676 249.711 29.0957 249.875V252.898Z" stroke=#ef0d33 stroke-width="2"/>
            <path d="M39.6426 269.352C37.0645 269.352 34.9668 268.508 33.3496 266.82C31.7324 265.121 30.9238 262.854 30.9238 260.018V259.42C30.9238 257.533 31.2812 255.852 31.9961 254.375C32.7227 252.887 33.7305 251.727 35.0195 250.895C36.3203 250.051 37.7266 249.629 39.2383 249.629C41.7109 249.629 43.6328 250.443 45.0039 252.072C46.375 253.701 47.0605 256.033 47.0605 259.068V260.422H34.1758C34.2227 262.297 34.7676 263.814 35.8105 264.975C36.8652 266.123 38.2012 266.697 39.8184 266.697C40.9668 266.697 41.9395 266.463 42.7363 265.994C43.5332 265.525 44.2305 264.904 44.8281 264.131L46.8145 265.678C45.2207 268.127 42.8301 269.352 39.6426 269.352ZM39.2383 252.301C37.9258 252.301 36.8242 252.781 35.9336 253.742C35.043 254.691 34.4922 256.027 34.2812 257.75H43.8086V257.504C43.7148 255.852 43.2695 254.574 42.4727 253.672C41.6758 252.758 40.5977 252.301 39.2383 252.301Z" stroke=#ef0d33 stroke-width="2"/>
            <path d="M58.7324 269.352C56.1543 269.352 54.0566 268.508 52.4395 266.82C50.8223 265.121 50.0137 262.854 50.0137 260.018V259.42C50.0137 257.533 50.3711 255.852 51.0859 254.375C51.8125 252.887 52.8203 251.727 54.1094 250.895C55.4102 250.051 56.8164 249.629 58.3281 249.629C60.8008 249.629 62.7227 250.443 64.0938 252.072C65.4648 253.701 66.1504 256.033 66.1504 259.068V260.422H53.2656C53.3125 262.297 53.8574 263.814 54.9004 264.975C55.9551 266.123 57.291 266.697 58.9082 266.697C60.0566 266.697 61.0293 266.463 61.8262 265.994C62.623 265.525 63.3203 264.904 63.918 264.131L65.9043 265.678C64.3105 268.127 61.9199 269.352 58.7324 269.352ZM58.3281 252.301C57.0156 252.301 55.9141 252.781 55.0234 253.742C54.1328 254.691 53.582 256.027 53.3711 257.75H62.8984V257.504C62.8047 255.852 62.3594 254.574 61.5625 253.672C60.7656 252.758 59.6875 252.301 58.3281 252.301Z" stroke=#ef0d33 stroke-width="2"/>
            <path d="M73.4629 269H70.2109V242H73.4629V269Z" stroke=#ef0d33 stroke-width="2"/>
            <path d="M90.4258 269C90.2383 268.625 90.0859 267.957 89.9688 266.996C88.457 268.566 86.6523 269.352 84.5547 269.352C82.6797 269.352 81.1387 268.824 79.9316 267.77C78.7363 266.703 78.1387 265.355 78.1387 263.727C78.1387 261.746 78.8887 260.211 80.3887 259.121C81.9004 258.02 84.0215 257.469 86.752 257.469H89.916V255.975C89.916 254.838 89.5762 253.936 88.8965 253.268C88.2168 252.588 87.2148 252.248 85.8906 252.248C84.7305 252.248 83.7578 252.541 82.9727 253.127C82.1875 253.713 81.7949 254.422 81.7949 255.254H78.5254C78.5254 254.305 78.8594 253.391 79.5273 252.512C80.207 251.621 81.1211 250.918 82.2695 250.402C83.4297 249.887 84.7012 249.629 86.084 249.629C88.2754 249.629 89.9922 250.18 91.2344 251.281C92.4766 252.371 93.1211 253.877 93.168 255.799V264.553C93.168 266.299 93.3906 267.688 93.8359 268.719V269H90.4258ZM85.0293 266.521C86.0488 266.521 87.0156 266.258 87.9297 265.73C88.8438 265.203 89.5059 264.518 89.916 263.674V259.771H87.3672C83.3828 259.771 81.3906 260.938 81.3906 263.27C81.3906 264.289 81.7305 265.086 82.4102 265.66C83.0898 266.234 83.9629 266.521 85.0293 266.521Z" stroke=#ef0d33 stroke-width="2"/>
            <path d="M101.342 249.98L101.447 252.371C102.9 250.543 104.799 249.629 107.143 249.629C111.162 249.629 113.189 251.896 113.225 256.432V269H109.973V256.414C109.961 255.043 109.645 254.029 109.023 253.373C108.414 252.717 107.459 252.389 106.158 252.389C105.104 252.389 104.178 252.67 103.381 253.232C102.584 253.795 101.963 254.533 101.518 255.447V269H98.2656V249.98H101.342Z" stroke=#ef0d33 stroke-width="2"/>
            <path d="M125.758 266.697C126.918 266.697 127.932 266.346 128.799 265.643C129.666 264.939 130.146 264.061 130.24 263.006H133.316C133.258 264.096 132.883 265.133 132.191 266.117C131.5 267.102 130.574 267.887 129.414 268.473C128.266 269.059 127.047 269.352 125.758 269.352C123.168 269.352 121.105 268.49 119.57 266.768C118.047 265.033 117.285 262.666 117.285 259.666V259.121C117.285 257.27 117.625 255.623 118.305 254.182C118.984 252.74 119.957 251.621 121.223 250.824C122.5 250.027 124.006 249.629 125.74 249.629C127.873 249.629 129.643 250.268 131.049 251.545C132.467 252.822 133.223 254.48 133.316 256.52H130.24C130.146 255.289 129.678 254.281 128.834 253.496C128.002 252.699 126.971 252.301 125.74 252.301C124.088 252.301 122.805 252.898 121.891 254.094C120.988 255.277 120.537 256.994 120.537 259.244V259.859C120.537 262.051 120.988 263.738 121.891 264.922C122.793 266.105 124.082 266.697 125.758 266.697Z" stroke=#ef0d33 stroke-width="2"/>
            <path d="M144.865 269.352C142.287 269.352 140.189 268.508 138.572 266.82C136.955 265.121 136.146 262.854 136.146 260.018V259.42C136.146 257.533 136.504 255.852 137.219 254.375C137.945 252.887 138.953 251.727 140.242 250.895C141.543 250.051 142.949 249.629 144.461 249.629C146.934 249.629 148.855 250.443 150.227 252.072C151.598 253.701 152.283 256.033 152.283 259.068V260.422H139.398C139.445 262.297 139.99 263.814 141.033 264.975C142.088 266.123 143.424 266.697 145.041 266.697C146.189 266.697 147.162 266.463 147.959 265.994C148.756 265.525 149.453 264.904 150.051 264.131L152.037 265.678C150.443 268.127 148.053 269.352 144.865 269.352ZM144.461 252.301C143.148 252.301 142.047 252.781 141.156 253.742C140.266 254.691 139.715 256.027 139.504 257.75H149.031V257.504C148.938 255.852 148.492 254.574 147.695 253.672C146.898 252.758 145.82 252.301 144.461 252.301Z" stroke=#ef0d33 stroke-width="2"/>
            <path d="M165.256 252.898C164.764 252.816 164.23 252.775 163.656 252.775C161.523 252.775 160.076 253.684 159.314 255.5V269H156.062V249.98H159.227L159.279 252.178C160.346 250.479 161.857 249.629 163.814 249.629C164.447 249.629 164.928 249.711 165.256 249.875V252.898Z" stroke=#ef0d33 stroke-width="2"/>
            <path d="M180.426 273.746H177.807V243.406H180.426V273.746Z" stroke=#ef0d33 stroke-width="2"/>
            <path d="M209.535 257.697H198.795V269H195.42V243.406H211.275V246.184H198.795V254.938H209.535V257.697Z" stroke=#ef0d33 stroke-width="2"/>
            <path d="M213.561 259.314C213.561 257.451 213.924 255.775 214.65 254.287C215.389 252.799 216.408 251.65 217.709 250.842C219.021 250.033 220.516 249.629 222.191 249.629C224.781 249.629 226.873 250.525 228.467 252.318C230.072 254.111 230.875 256.496 230.875 259.473V259.701C230.875 261.553 230.518 263.217 229.803 264.693C229.1 266.158 228.086 267.301 226.762 268.121C225.449 268.941 223.938 269.352 222.227 269.352C219.648 269.352 217.557 268.455 215.951 266.662C214.357 264.869 213.561 262.496 213.561 259.543V259.314ZM216.83 259.701C216.83 261.811 217.316 263.504 218.289 264.781C219.273 266.059 220.586 266.697 222.227 266.697C223.879 266.697 225.191 266.053 226.164 264.764C227.137 263.463 227.623 261.646 227.623 259.314C227.623 257.229 227.125 255.541 226.129 254.252C225.145 252.951 223.832 252.301 222.191 252.301C220.586 252.301 219.291 252.939 218.307 254.217C217.322 255.494 216.83 257.322 216.83 259.701Z" stroke=#ef0d33 stroke-width="2"/>
            <path d="M246.695 267.119C245.43 268.607 243.572 269.352 241.123 269.352C239.096 269.352 237.549 268.766 236.482 267.594C235.428 266.41 234.895 264.664 234.883 262.355V249.98H238.135V262.268C238.135 265.15 239.307 266.592 241.65 266.592C244.135 266.592 245.787 265.666 246.607 263.814V249.98H249.859V269H246.766L246.695 267.119Z" stroke=#ef0d33 stroke-width="2"/>
            <path d="M257.893 249.98L257.998 252.371C259.451 250.543 261.35 249.629 263.693 249.629C267.713 249.629 269.74 251.896 269.775 256.432V269H266.523V256.414C266.512 255.043 266.195 254.029 265.574 253.373C264.965 252.717 264.01 252.389 262.709 252.389C261.654 252.389 260.729 252.67 259.932 253.232C259.135 253.795 258.514 254.533 258.068 255.447V269H254.816V249.98H257.893Z" stroke=#ef0d33 stroke-width="2"/>
            <path d="M273.889 259.332C273.889 256.414 274.58 254.07 275.963 252.301C277.346 250.52 279.156 249.629 281.395 249.629C283.621 249.629 285.385 250.391 286.686 251.914V242H289.938V269H286.949L286.791 266.961C285.49 268.555 283.68 269.352 281.359 269.352C279.156 269.352 277.357 268.449 275.963 266.645C274.58 264.84 273.889 262.484 273.889 259.578V259.332ZM277.141 259.701C277.141 261.857 277.586 263.545 278.477 264.764C279.367 265.982 280.598 266.592 282.168 266.592C284.23 266.592 285.736 265.666 286.686 263.814V255.078C285.713 253.285 284.219 252.389 282.203 252.389C280.609 252.389 279.367 253.004 278.477 254.234C277.586 255.465 277.141 257.287 277.141 259.701Z" stroke=#ef0d33 stroke-width="2"/>
            <path d="M302.893 269.352C300.314 269.352 298.217 268.508 296.6 266.82C294.982 265.121 294.174 262.854 294.174 260.018V259.42C294.174 257.533 294.531 255.852 295.246 254.375C295.973 252.887 296.98 251.727 298.27 250.895C299.57 250.051 300.977 249.629 302.488 249.629C304.961 249.629 306.883 250.443 308.254 252.072C309.625 253.701 310.311 256.033 310.311 259.068V260.422H297.426C297.473 262.297 298.018 263.814 299.061 264.975C300.115 266.123 301.451 266.697 303.068 266.697C304.217 266.697 305.189 266.463 305.986 265.994C306.783 265.525 307.48 264.904 308.078 264.131L310.064 265.678C308.471 268.127 306.08 269.352 302.893 269.352ZM302.488 252.301C301.176 252.301 300.074 252.781 299.184 253.742C298.293 254.691 297.742 256.027 297.531 257.75H307.059V257.504C306.965 255.852 306.52 254.574 305.723 253.672C304.926 252.758 303.848 252.301 302.488 252.301Z" stroke=#ef0d33 stroke-width="2"/>
            <path d="M323.283 252.898C322.791 252.816 322.258 252.775 321.684 252.775C319.551 252.775 318.104 253.684 317.342 255.5V269H314.09V249.98H317.254L317.307 252.178C318.373 250.479 319.885 249.629 321.842 249.629C322.475 249.629 322.955 249.711 323.283 249.875V252.898Z" stroke=#ef0d33 stroke-width="2"/>
            <path d="M334.357 259.314C334.357 257.451 334.721 255.775 335.447 254.287C336.186 252.799 337.205 251.65 338.506 250.842C339.818 250.033 341.312 249.629 342.988 249.629C345.578 249.629 347.67 250.525 349.264 252.318C350.869 254.111 351.672 256.496 351.672 259.473V259.701C351.672 261.553 351.314 263.217 350.6 264.693C349.896 266.158 348.883 267.301 347.559 268.121C346.246 268.941 344.734 269.352 343.023 269.352C340.445 269.352 338.354 268.455 336.748 266.662C335.154 264.869 334.357 262.496 334.357 259.543V259.314ZM337.627 259.701C337.627 261.811 338.113 263.504 339.086 264.781C340.07 266.059 341.383 266.697 343.023 266.697C344.676 266.697 345.988 266.053 346.961 264.764C347.934 263.463 348.42 261.646 348.42 259.314C348.42 257.229 347.922 255.541 346.926 254.252C345.941 252.951 344.629 252.301 342.988 252.301C341.383 252.301 340.088 252.939 339.104 254.217C338.119 255.494 337.627 257.322 337.627 259.701Z" stroke=#ef0d33 stroke-width="2"/>
            <path d="M357.35 269V252.494H354.344V249.98H357.35V248.029C357.35 245.99 357.895 244.414 358.984 243.301C360.074 242.188 361.615 241.631 363.607 241.631C364.357 241.631 365.102 241.73 365.84 241.93L365.664 244.566C365.113 244.461 364.527 244.408 363.906 244.408C362.852 244.408 362.037 244.719 361.463 245.34C360.889 245.949 360.602 246.828 360.602 247.977V249.98H364.662V252.494H360.602V269H357.35Z" stroke=#ef0d33 stroke-width="2"/>
            <path d="M396.602 265.643C395.734 266.885 394.521 267.816 392.963 268.438C391.416 269.047 389.611 269.352 387.549 269.352C385.463 269.352 383.611 268.865 381.994 267.893C380.377 266.908 379.123 265.514 378.232 263.709C377.354 261.904 376.902 259.812 376.879 257.434V255.201C376.879 251.346 377.775 248.357 379.568 246.236C381.373 244.115 383.904 243.055 387.162 243.055C389.834 243.055 391.984 243.74 393.613 245.111C395.242 246.471 396.238 248.404 396.602 250.912H393.227C392.594 247.525 390.578 245.832 387.18 245.832C384.918 245.832 383.201 246.629 382.029 248.223C380.869 249.805 380.283 252.102 380.271 255.113V257.205C380.271 260.076 380.928 262.361 382.24 264.061C383.553 265.748 385.328 266.592 387.566 266.592C388.832 266.592 389.939 266.451 390.889 266.17C391.838 265.889 392.623 265.414 393.244 264.746V258.998H387.32V256.256H396.602V265.643Z" stroke=#ef0d33 stroke-width="2"/>
            <path d="M413.477 267.119C412.211 268.607 410.354 269.352 407.904 269.352C405.877 269.352 404.33 268.766 403.264 267.594C402.209 266.41 401.676 264.664 401.664 262.355V249.98H404.916V262.268C404.916 265.15 406.088 266.592 408.432 266.592C410.916 266.592 412.568 265.666 413.389 263.814V249.98H416.641V269H413.547L413.477 267.119Z" stroke=#ef0d33 stroke-width="2"/>
            <path d="M424.674 249.98L424.779 252.371C426.232 250.543 428.131 249.629 430.475 249.629C434.494 249.629 436.521 251.896 436.557 256.432V269H433.305V256.414C433.293 255.043 432.977 254.029 432.355 253.373C431.746 252.717 430.791 252.389 429.49 252.389C428.436 252.389 427.51 252.67 426.713 253.232C425.916 253.795 425.295 254.533 424.85 255.447V269H421.598V249.98H424.674Z" stroke=#ef0d33 stroke-width="2"/>
            <path d="M454.803 245.375V249.98H458.354V252.494H454.803V264.289C454.803 265.051 454.961 265.625 455.277 266.012C455.594 266.387 456.133 266.574 456.895 266.574C457.27 266.574 457.785 266.504 458.441 266.363V269C457.586 269.234 456.754 269.352 455.945 269.352C454.492 269.352 453.396 268.912 452.658 268.033C451.92 267.154 451.551 265.906 451.551 264.289V252.494H448.088V249.98H451.551V245.375H454.803Z" stroke=#ef0d33 stroke-width="2"/>
            <path d="M470.061 269.352C467.482 269.352 465.385 268.508 463.768 266.82C462.15 265.121 461.342 262.854 461.342 260.018V259.42C461.342 257.533 461.699 255.852 462.414 254.375C463.141 252.887 464.148 251.727 465.438 250.895C466.738 250.051 468.145 249.629 469.656 249.629C472.129 249.629 474.051 250.443 475.422 252.072C476.793 253.701 477.479 256.033 477.479 259.068V260.422H464.594C464.641 262.297 465.186 263.814 466.229 264.975C467.283 266.123 468.619 266.697 470.236 266.697C471.385 266.697 472.357 266.463 473.154 265.994C473.951 265.525 474.648 264.904 475.246 264.131L477.232 265.678C475.639 268.127 473.248 269.352 470.061 269.352ZM469.656 252.301C468.344 252.301 467.242 252.781 466.352 253.742C465.461 254.691 464.91 256.027 464.699 257.75H474.227V257.504C474.133 255.852 473.688 254.574 472.891 253.672C472.094 252.758 471.016 252.301 469.656 252.301Z" stroke=#ef0d33 stroke-width="2"/>
            <path d="M488.887 266.697C490.047 266.697 491.061 266.346 491.928 265.643C492.795 264.939 493.275 264.061 493.369 263.006H496.445C496.387 264.096 496.012 265.133 495.32 266.117C494.629 267.102 493.703 267.887 492.543 268.473C491.395 269.059 490.176 269.352 488.887 269.352C486.297 269.352 484.234 268.49 482.699 266.768C481.176 265.033 480.414 262.666 480.414 259.666V259.121C480.414 257.27 480.754 255.623 481.434 254.182C482.113 252.74 483.086 251.621 484.352 250.824C485.629 250.027 487.135 249.629 488.869 249.629C491.002 249.629 492.771 250.268 494.178 251.545C495.596 252.822 496.352 254.48 496.445 256.52H493.369C493.275 255.289 492.807 254.281 491.963 253.496C491.131 252.699 490.1 252.301 488.869 252.301C487.217 252.301 485.934 252.898 485.02 254.094C484.117 255.277 483.666 256.994 483.666 259.244V259.859C483.666 262.051 484.117 263.738 485.02 264.922C485.922 266.105 487.211 266.697 488.887 266.697Z" stroke=#ef0d33 stroke-width="2"/>
            <path d="M503.354 252.283C504.795 250.514 506.67 249.629 508.979 249.629C512.998 249.629 515.025 251.896 515.061 256.432V269H511.809V256.414C511.797 255.043 511.48 254.029 510.859 253.373C510.25 252.717 509.295 252.389 507.994 252.389C506.939 252.389 506.014 252.67 505.217 253.232C504.42 253.795 503.799 254.533 503.354 255.447V269H500.102V242H503.354V252.283Z" stroke=#ef0d33 stroke-width="2"/>
            <path d="M520 267.295C520 266.732 520.164 266.264 520.492 265.889C520.832 265.514 521.336 265.326 522.004 265.326C522.672 265.326 523.176 265.514 523.516 265.889C523.867 266.264 524.043 266.732 524.043 267.295C524.043 267.834 523.867 268.285 523.516 268.648C523.176 269.012 522.672 269.193 522.004 269.193C521.336 269.193 520.832 269.012 520.492 268.648C520.164 268.285 520 267.834 520 267.295Z" stroke=#ef0d33 stroke-width="2"/>
            </svg>
            