<svg width="714" height="335" viewBox="0 0 714 335" fill="none" xmlns="http://www.w3.org/2000/svg">
<path d="M30.056 109.552L27.9554 114.089L28.0056 114.113L28.0563 114.135L30.056 109.552ZM17.816 99.76L13.7286 102.64L13.7442 102.662L13.7601 102.684L17.816 99.76ZM13.208 85.216V80.216H8.11951L8.20877 85.3037L13.208 85.216ZM27.176 85.216L32.1502 84.7084L31.6918 80.216H27.176V85.216ZM32.936 97.168L29.4521 100.754L29.504 100.805L29.5574 100.854L32.936 97.168ZM62.6 97.312L65.8708 101.094L65.8784 101.087L62.6 97.312ZM64.904 75.856L61.1504 79.1591L61.1504 79.1591L64.904 75.856ZM56.984 70.384L55.1514 75.036L55.1514 75.036L56.984 70.384ZM44.168 66.352L45.4617 61.5223L45.4459 61.518L45.4301 61.5139L44.168 66.352ZM28.184 61.168L26.1741 65.7462L26.1942 65.7551L26.2144 65.7637L28.184 61.168ZM17.96 53.104L13.9477 56.0875L13.9908 56.1455L14.0356 56.2022L17.96 53.104ZM17.96 23.584L22.1348 26.3356L22.1348 26.3356L17.96 23.584ZM29.624 13.792L27.5615 9.23722L27.5451 9.24465L27.5287 9.2522L29.624 13.792ZM70.088 17.392L66.9877 21.3148L67.003 21.3268L67.0183 21.3388L70.088 17.392ZM80.312 36.112V41.112H85.8302L85.2878 35.6206L80.312 36.112ZM65.912 36.112L60.9506 36.7322L61.4981 41.112H65.912V36.112ZM59.864 26.032L56.6529 29.8646L56.6837 29.8904L56.715 29.9158L59.864 26.032ZM32.36 25.888L35.4967 29.7818L35.529 29.7557L35.5609 29.7291L32.36 25.888ZM30.2 46.624L26.4371 49.9165L26.4752 49.96L26.5142 50.0026L30.2 46.624ZM37.832 51.952L35.8984 56.563L35.9867 56.6L36.0764 56.6336L37.832 51.952ZM50.648 55.984L49.2967 60.7979L49.3086 60.8013L49.3206 60.8046L50.648 55.984ZM66.632 61.456L64.5712 66.0115L64.6166 66.0321L64.6624 66.0517L66.632 61.456ZM77 69.664L73.0369 72.7126L73.0561 72.7375L73.0756 72.7622L77 69.664ZM77.432 98.464L81.7195 101.036L81.7195 101.036L77.432 98.464ZM65.912 108.976L63.5764 104.555L65.912 108.976ZM47.912 108.008C41.8737 108.008 36.6174 106.96 32.0557 104.969L28.0563 114.135C34.0546 116.752 40.7023 118.008 47.912 118.008V108.008ZM32.1566 105.015C27.6548 102.93 24.2863 100.185 21.8719 96.836L13.7601 102.684C17.2977 107.591 22.0892 111.374 27.9554 114.089L32.1566 105.015ZM21.9034 96.8802C19.539 93.5243 18.2868 89.6618 18.2072 85.1283L8.20877 85.3037C8.32124 91.7142 10.141 97.5477 13.7286 102.64L21.9034 96.8802ZM13.208 90.216H27.176V80.216H13.208V90.216ZM22.2018 85.7236C22.7999 91.5851 25.2402 96.6628 29.4521 100.754L36.4199 93.5816C33.9118 91.1452 32.5121 88.2549 32.1502 84.7084L22.2018 85.7236ZM29.5574 100.854C34.2438 105.15 40.6258 106.92 47.912 106.92V96.92C42.1422 96.92 38.5402 95.5224 36.3146 93.4822L29.5574 100.854ZM47.912 106.92C54.9533 106.92 61.1476 105.179 65.8708 101.094L59.3292 93.5302C56.9484 95.5893 53.3507 96.92 47.912 96.92V106.92ZM65.8784 101.087C70.6366 96.955 73.072 91.5381 73.072 85.216H63.072C63.072 88.6859 61.8594 91.3329 59.3216 93.5368L65.8784 101.087ZM73.072 85.216C73.072 80.4168 71.7277 76.0416 68.6576 72.5529L61.1504 79.1591C62.3043 80.4704 63.072 82.3352 63.072 85.216H73.072ZM68.6576 72.5529C65.9874 69.5186 62.6736 67.2514 58.8166 65.732L55.1514 75.036C57.6304 76.0126 59.5966 77.3934 61.1504 79.1591L68.6576 72.5529ZM58.8166 65.732C55.3977 64.3851 50.9216 62.9847 45.4617 61.5223L42.8743 71.1817C48.1664 72.5993 52.2343 73.8869 55.1514 75.036L58.8166 65.732ZM45.4301 61.5139C38.9298 59.8182 33.8663 58.1634 30.1536 56.5723L26.2144 65.7637C30.5657 67.6286 36.1582 69.4298 42.9059 71.1901L45.4301 61.5139ZM30.194 56.5898C27.0677 55.2173 24.2993 53.0647 21.8844 50.0058L14.0356 56.2022C17.3807 60.4393 21.4283 63.6627 26.1741 65.7462L30.194 56.5898ZM21.9723 50.1205C20.0153 47.4886 18.784 43.6526 18.784 38.128H8.784C8.784 45.0834 10.3367 51.2314 13.9477 56.0875L21.9723 50.1205ZM18.784 38.128C18.784 33.5507 19.9333 29.6758 22.1348 26.3356L13.7852 20.8324C10.4187 25.9402 8.784 31.7613 8.784 38.128H18.784ZM22.1348 26.3356C24.3615 22.957 27.4974 20.2804 31.7193 18.3318L27.5287 9.2522C21.7666 11.9116 17.1265 15.7629 13.7852 20.8324L22.1348 26.3356ZM31.6865 18.3468C36.0262 16.3816 41.1123 15.336 47.048 15.336V5.336C39.9277 5.336 33.3978 6.59437 27.5615 9.23722L31.6865 18.3468ZM47.048 15.336C55.6075 15.336 62.1135 17.4626 66.9877 21.3148L73.1883 13.4692C66.1585 7.91338 57.3045 5.336 47.048 5.336V15.336ZM67.0183 21.3388C71.9601 25.1823 74.6999 30.1612 75.3362 36.6034L85.2878 35.6206C84.3881 26.5107 80.312 19.0096 73.1577 13.4452L67.0183 21.3388ZM80.312 31.112H65.912V41.112H80.312V31.112ZM70.8734 35.4918C70.2047 30.1419 67.3731 25.6834 63.013 22.1482L56.715 29.9158C59.4589 32.1406 60.6593 34.4021 60.9506 36.7322L70.8734 35.4918ZM63.0751 22.1994C58.4063 18.2877 52.4646 16.568 45.752 16.568V26.568C50.7514 26.568 54.2177 27.8243 56.6529 29.8646L63.0751 22.1994ZM45.752 16.568C39.373 16.568 33.6966 18.2656 29.1591 22.0469L35.5609 29.7291C37.9354 27.7504 41.187 26.568 45.752 26.568V16.568ZM29.2234 21.9942C24.4076 25.8736 22.176 31.3445 22.176 37.696H32.176C32.176 33.8715 33.4004 31.4704 35.4967 29.7818L29.2234 21.9942ZM22.176 37.696C22.176 42.3111 23.4764 46.5328 26.4371 49.9165L33.9629 43.3315C32.8916 42.1072 32.176 40.3769 32.176 37.696H22.176ZM26.5142 50.0026C29.1304 52.8567 32.2784 55.0449 35.8984 56.563L39.7656 47.341C37.4336 46.3631 35.4936 44.9993 33.8858 43.2454L26.5142 50.0026ZM36.0764 56.6336C39.343 57.8586 43.7713 59.2469 49.2967 60.7979L51.9993 51.1701C46.5807 49.6491 42.465 48.3494 39.5876 47.2704L36.0764 56.6336ZM49.3206 60.8046C55.8146 62.5928 60.8684 64.3365 64.5712 66.0115L68.6928 56.9005C64.3317 54.9275 58.7295 53.0232 51.9754 51.1634L49.3206 60.8046ZM64.6624 66.0517C67.8486 67.4172 70.6369 69.5926 73.0369 72.7126L80.9631 66.6154C77.6031 62.2474 73.4794 58.9508 68.6016 56.8603L64.6624 66.0517ZM73.0756 72.7622C75.0438 75.2553 76.32 79.0234 76.32 84.64H86.32C86.32 77.5846 84.7162 71.3687 80.9244 66.5658L73.0756 72.7622ZM76.32 84.64C76.32 88.6026 75.2845 92.325 73.1445 95.8915L81.7195 101.036C84.7635 95.963 86.32 90.4694 86.32 84.64H76.32ZM73.1445 95.8915C71.086 99.3224 67.9744 102.232 63.5764 104.555L68.2476 113.397C74.0256 110.344 78.594 106.246 81.7195 101.036L73.1445 95.8915ZM63.5764 104.555C59.3395 106.793 54.1726 108.008 47.912 108.008V118.008C55.4754 118.008 62.3085 116.535 68.2476 113.397L63.5764 104.555ZM100.604 51.088L105.004 53.4627L105.012 53.4482L105.019 53.4338L100.604 51.088ZM113.996 36.832L111.476 32.5131L111.46 32.5224L111.445 32.5317L113.996 36.832ZM151.148 36.256L148.623 40.5719L148.623 40.5719L151.148 36.256ZM162.524 47.488L158.148 49.9083L167.524 47.488H162.524ZM162.524 33.088V28.088H157.524V33.088H162.524ZM175.772 33.088H180.772V28.088H175.772V33.088ZM175.772 112V117H180.772V112H175.772ZM162.524 112H157.524V117H162.524V112ZM162.524 97.312H167.524V78.2245L158.166 94.8607L162.524 97.312ZM150.86 108.832L153.384 113.148L153.396 113.141L153.409 113.133L150.86 108.832ZM113.996 108.112L111.391 112.38L111.391 112.38L113.996 108.112ZM100.604 93.568L105.034 91.2505L105.034 91.2505L100.604 93.568ZM149.132 46.768L146.574 51.0645L146.634 51.1001L146.695 51.134L149.132 46.768ZM122.348 46.624L119.867 42.2828L119.867 42.2828L122.348 46.624ZM112.7 56.704L117.093 59.0916L117.093 59.0916L112.7 56.704ZM112.7 88.096L108.285 90.4441L108.296 90.4639L108.307 90.4836L112.7 88.096ZM122.348 98.32L119.79 102.616L119.828 102.639L119.867 102.661L122.348 98.32ZM149.132 98.32L151.612 102.661L151.629 102.652L151.645 102.643L149.132 98.32ZM158.924 88.096L163.317 90.4836L163.327 90.4639L163.338 90.4441L158.924 88.096ZM100.708 72.256C100.708 64.877 102.197 58.664 105.004 53.4627L96.2035 48.7133C92.4826 55.608 90.7076 63.507 90.7076 72.256H100.708ZM105.019 53.4338C107.878 48.0523 111.717 43.9974 116.547 41.1323L111.445 32.5317C104.946 36.3866 99.8571 41.8357 96.188 48.7422L105.019 53.4338ZM116.515 41.1509C121.471 38.26 126.978 36.792 133.148 36.792V26.792C125.301 26.792 118.04 28.684 111.476 32.5131L116.515 41.1509ZM133.148 36.792C139.327 36.792 144.424 38.116 148.623 40.5719L153.672 31.9401C147.695 28.444 140.792 26.792 133.148 26.792V36.792ZM148.623 40.5719C153.048 43.1601 156.147 46.2904 158.148 49.9083L166.899 45.0677C163.908 39.6616 159.423 35.3038 153.672 31.9401L148.623 40.5719ZM167.524 47.488V33.088H157.524V47.488H167.524ZM162.524 38.088H175.772V28.088H162.524V38.088ZM170.772 33.088V112H180.772V33.088H170.772ZM175.772 107H162.524V117H175.772V107ZM167.524 112V97.312H157.524V112H167.524ZM158.166 94.8607C156.061 98.6022 152.847 101.842 148.311 104.531L153.409 113.133C159.24 109.678 163.802 105.238 166.882 99.7633L158.166 94.8607ZM148.335 104.516C144.126 106.978 139.073 108.296 133.004 108.296V118.296C140.566 118.296 147.417 116.638 153.384 113.148L148.335 104.516ZM133.004 108.296C126.861 108.296 121.435 106.794 116.6 103.844L111.391 112.38C117.884 116.342 125.131 118.296 133.004 118.296V108.296ZM116.6 103.844C111.758 100.89 107.904 96.738 105.034 91.2505L96.1731 95.8855C99.8308 102.878 104.905 108.422 111.391 112.38L116.6 103.844ZM105.034 91.2505C102.191 85.8151 100.708 79.5241 100.708 72.256H90.7076C90.7076 80.9239 92.4883 88.8409 96.1731 95.8855L105.034 91.2505ZM167.524 72.4C167.524 65.7676 166.182 59.7333 163.317 54.4604L154.531 59.2356C156.465 62.7947 157.524 67.1284 157.524 72.4H167.524ZM163.317 54.4604C160.495 49.2681 156.576 45.1966 151.568 42.402L146.695 51.134C149.944 52.9473 152.552 55.5959 154.531 59.2356L163.317 54.4604ZM151.689 42.4715C146.849 39.5906 141.495 38.168 135.74 38.168V48.168C139.776 48.168 143.35 49.1454 146.574 51.0645L151.689 42.4715ZM135.74 38.168C130.023 38.168 124.696 39.5234 119.867 42.2828L124.828 50.9652C128.063 49.1166 131.665 48.168 135.74 48.168V38.168ZM119.867 42.2828C114.962 45.0856 111.112 49.1539 108.307 54.3164L117.093 59.0916C119.087 55.422 121.669 52.7704 124.828 50.9652L119.867 42.2828ZM108.307 54.3164C105.441 59.5893 104.1 65.6236 104.1 72.256H114.1C114.1 66.9844 115.158 62.6507 117.093 59.0916L108.307 54.3164ZM104.1 72.256C104.1 78.9729 105.436 85.0874 108.285 90.4441L117.114 85.7479C115.163 82.0806 114.1 77.6351 114.1 72.256H104.1ZM108.307 90.4836C111.104 95.631 114.931 99.7239 119.79 102.616L124.905 94.0235C121.7 92.1161 119.095 89.393 117.093 85.7084L108.307 90.4836ZM119.867 102.661C124.696 105.421 130.023 106.776 135.74 106.776V96.776C131.665 96.776 128.063 95.8274 124.828 93.9788L119.867 102.661ZM135.74 106.776C141.457 106.776 146.783 105.421 151.612 102.661L146.651 93.9788C143.416 95.8274 139.815 96.776 135.74 96.776V106.776ZM151.645 102.643C156.607 99.7573 160.503 95.6604 163.317 90.4836L154.531 85.7084C152.544 89.3636 149.912 92.0827 146.619 93.9975L151.645 102.643ZM163.338 90.4441C166.181 85.0985 167.524 79.0356 167.524 72.4H157.524C157.524 77.6684 156.466 82.0695 154.509 85.7479L163.338 90.4441ZM211.02 45.904H206.02L215.473 48.1779L211.02 45.904ZM220.812 35.392L218.311 31.0627L218.29 31.0749L218.268 31.0874L220.812 35.392ZM236.508 31.648H241.508V26.648H236.508V31.648ZM236.508 45.184V50.184H241.508V45.184H236.508ZM211.02 112V117H216.02V112H211.02ZM197.916 112H192.916V117H197.916V112ZM197.916 33.088V28.088H192.916V33.088H197.916ZM211.02 33.088H216.02V28.088H211.02V33.088ZM215.473 48.1779C217.361 44.4811 219.975 41.6941 223.356 39.6966L218.268 31.0874C213.201 34.0819 209.287 38.3029 206.567 43.6301L215.473 48.1779ZM223.314 39.7213C226.716 37.7557 231.041 36.648 236.508 36.648V26.648C229.688 26.648 223.549 28.0363 218.311 31.0627L223.314 39.7213ZM231.508 31.648V45.184H241.508V31.648H231.508ZM236.508 40.184H233.052V50.184H236.508V40.184ZM233.052 40.184C224.828 40.184 217.771 42.4337 212.852 47.7714C208.003 53.032 206.02 60.4458 206.02 69.088H216.02C216.02 61.7942 217.709 57.256 220.205 54.5486C222.629 51.9183 226.588 50.184 233.052 50.184V40.184ZM206.02 69.088V112H216.02V69.088H206.02ZM211.02 107H197.916V117H211.02V107ZM202.916 112V33.088H192.916V112H202.916ZM197.916 38.088H211.02V28.088H197.916V38.088ZM206.02 33.088V45.904H216.02V33.088H206.02ZM251.635 51.088L256.035 53.4627L256.043 53.4482L256.05 53.4338L251.635 51.088ZM265.027 36.832L262.508 32.5131L262.492 32.5224L262.476 32.5317L265.027 36.832ZM302.179 36.256L299.654 40.5719L299.654 40.5719L302.179 36.256ZM313.555 47.488L309.18 49.9083L318.555 47.488H313.555ZM313.555 33.088V28.088H308.555V33.088H313.555ZM326.803 33.088H331.803V28.088H326.803V33.088ZM326.803 112V117H331.803V112H326.803ZM313.555 112H308.555V117H313.555V112ZM313.555 97.312H318.555V78.2245L309.197 94.8607L313.555 97.312ZM301.891 108.832L304.415 113.148L304.428 113.141L304.44 113.133L301.891 108.832ZM265.027 108.112L262.423 112.38L262.423 112.38L265.027 108.112ZM251.635 93.568L256.065 91.2505L256.065 91.2505L251.635 93.568ZM300.163 46.768L297.605 51.0645L297.665 51.1001L297.726 51.134L300.163 46.768ZM273.379 46.624L270.898 42.2828L270.898 42.2828L273.379 46.624ZM263.731 56.704L268.124 59.0916L268.124 59.0916L263.731 56.704ZM263.731 88.096L259.317 90.4441L259.327 90.4639L259.338 90.4836L263.731 88.096ZM273.379 98.32L270.821 102.616L270.86 102.639L270.898 102.661L273.379 98.32ZM300.163 98.32L302.644 102.661L302.66 102.652L302.676 102.643L300.163 98.32ZM309.955 88.096L314.348 90.4836L314.359 90.4639L314.369 90.4441L309.955 88.096ZM251.739 72.256C251.739 64.877 253.228 58.664 256.035 53.4627L247.235 48.7133C243.514 55.608 241.739 63.507 241.739 72.256H251.739ZM256.05 53.4338C258.909 48.0523 262.748 43.9974 267.578 41.1323L262.476 32.5317C255.978 36.3866 250.888 41.8357 247.219 48.7422L256.05 53.4338ZM267.546 41.1509C272.502 38.26 278.009 36.792 284.179 36.792V26.792C276.333 26.792 269.072 28.684 262.508 32.5131L267.546 41.1509ZM284.179 36.792C290.358 36.792 295.456 38.116 299.654 40.5719L304.703 31.9401C298.726 28.444 291.824 26.792 284.179 26.792V36.792ZM299.654 40.5719C304.079 43.1601 307.178 46.2904 309.18 49.9083L317.93 45.0677C314.939 39.6616 310.454 35.3038 304.703 31.9401L299.654 40.5719ZM318.555 47.488V33.088H308.555V47.488H318.555ZM313.555 38.088H326.803V28.088H313.555V38.088ZM321.803 33.088V112H331.803V33.088H321.803ZM326.803 107H313.555V117H326.803V107ZM318.555 112V97.312H308.555V112H318.555ZM309.197 94.8607C307.092 98.6022 303.878 101.842 299.342 104.531L304.44 113.133C310.271 109.678 314.833 105.238 317.913 99.7633L309.197 94.8607ZM299.366 104.516C295.157 106.978 290.104 108.296 284.035 108.296V118.296C291.598 118.296 298.449 116.638 304.415 113.148L299.366 104.516ZM284.035 108.296C277.892 108.296 272.466 106.794 267.631 103.844L262.423 112.38C268.916 116.342 276.162 118.296 284.035 118.296V108.296ZM267.631 103.844C262.79 100.89 258.936 96.738 256.065 91.2505L247.204 95.8855C250.862 102.878 255.936 108.422 262.423 112.38L267.631 103.844ZM256.065 91.2505C253.222 85.8151 251.739 79.5241 251.739 72.256H241.739C241.739 80.9239 243.52 88.8409 247.204 95.8855L256.065 91.2505ZM318.555 72.4C318.555 65.7676 317.214 59.7333 314.348 54.4604L305.562 59.2356C307.496 62.7947 308.555 67.1284 308.555 72.4H318.555ZM314.348 54.4604C311.526 49.2681 307.607 45.1966 302.6 42.402L297.726 51.134C300.975 52.9473 303.584 55.5959 305.562 59.2356L314.348 54.4604ZM302.72 42.4715C297.88 39.5906 292.526 38.168 286.771 38.168V48.168C290.807 48.168 294.381 49.1454 297.605 51.0645L302.72 42.4715ZM286.771 38.168C281.054 38.168 275.727 39.5234 270.898 42.2828L275.86 50.9652C279.095 49.1166 282.696 48.168 286.771 48.168V38.168ZM270.898 42.2828C265.993 45.0856 262.143 49.1539 259.338 54.3164L268.124 59.0916C270.118 55.422 272.7 52.7704 275.86 50.9652L270.898 42.2828ZM259.338 54.3164C256.472 59.5893 255.131 65.6236 255.131 72.256H265.131C265.131 66.9844 266.19 62.6507 268.124 59.0916L259.338 54.3164ZM255.131 72.256C255.131 78.9729 256.467 85.0874 259.317 90.4441L268.145 85.7479C266.195 82.0806 265.131 77.6351 265.131 72.256H255.131ZM259.338 90.4836C262.135 95.631 265.962 99.7239 270.821 102.616L275.936 94.0235C272.732 92.1161 270.126 89.393 268.124 85.7084L259.338 90.4836ZM270.898 102.661C275.727 105.421 281.054 106.776 286.771 106.776V96.776C282.696 96.776 279.095 95.8274 275.86 93.9788L270.898 102.661ZM286.771 106.776C292.488 106.776 297.815 105.421 302.644 102.661L297.682 93.9788C294.447 95.8274 290.846 96.776 286.771 96.776V106.776ZM302.676 102.643C307.639 99.7573 311.534 95.6604 314.348 90.4836L305.562 85.7084C303.575 89.3636 300.943 92.0827 297.65 93.9975L302.676 102.643ZM314.369 90.4441C317.213 85.0985 318.555 79.0356 318.555 72.4H308.555C308.555 77.6684 307.497 82.0695 305.541 85.7479L314.369 90.4441ZM410.723 40.432L407.217 43.9962L407.231 44.0106L407.246 44.025L410.723 40.432ZM419.651 112V117H424.651V112H419.651ZM406.691 112H401.691V117H406.691V112ZM400.787 49.36L397.129 52.7686L397.149 52.7896L397.169 52.8104L400.787 49.36ZM368.099 49.504L364.484 46.0497L364.464 46.0709L364.444 46.0924L368.099 49.504ZM362.051 112V117H367.051V112H362.051ZM348.947 112H343.947V117H348.947V112ZM348.947 33.088V28.088H343.947V33.088H348.947ZM362.051 33.088H367.051V28.088H362.051V33.088ZM362.051 44.32H357.051V61.3441L366.257 47.0238L362.051 44.32ZM372.563 34.96L370.366 30.4689L370.346 30.4783L370.327 30.4879L372.563 34.96ZM387.395 36.648C395.896 36.648 402.341 39.1993 407.217 43.9962L414.23 36.8678C407.202 29.9527 398.095 26.648 387.395 26.648V36.648ZM407.246 44.025C411.941 48.5685 414.651 55.4451 414.651 65.488H424.651C424.651 53.6429 421.409 43.8155 414.2 36.839L407.246 44.025ZM414.651 65.488V112H424.651V65.488H414.651ZM419.651 107H406.691V117H419.651V107ZM411.691 112V67.36H401.691V112H411.691ZM411.691 67.36C411.691 58.6979 409.52 51.2727 404.406 45.9096L397.169 52.8104C399.927 55.7033 401.691 60.2781 401.691 67.36H411.691ZM404.445 45.9514C399.393 40.5289 392.59 38.024 384.659 38.024V48.024C390.361 48.024 394.31 49.7431 397.129 52.7686L404.445 45.9514ZM384.659 38.024C376.615 38.024 369.706 40.5855 364.484 46.0497L371.714 52.9583C374.749 49.7825 378.879 48.024 384.659 48.024V38.024ZM364.444 46.0924C359.256 51.6514 357.051 59.3511 357.051 68.368H367.051C367.051 60.8729 368.879 55.9966 371.755 52.9156L364.444 46.0924ZM357.051 68.368V112H367.051V68.368H357.051ZM362.051 107H348.947V117H362.051V107ZM353.947 112V33.088H343.947V112H353.947ZM348.947 38.088H362.051V28.088H348.947V38.088ZM357.051 33.088V44.32H367.051V33.088H357.051ZM366.257 47.0238C368.348 43.7709 371.162 41.251 374.799 39.4321L370.327 30.4879C365.133 33.085 360.938 36.8051 357.845 41.6162L366.257 47.0238ZM374.761 39.4511C378.541 37.6011 382.727 36.648 387.395 36.648V26.648C381.312 26.648 375.609 27.9028 370.366 30.4689L374.761 39.4511ZM452.721 110.272L450.707 114.849L450.746 114.866L450.785 114.882L452.721 110.272ZM441.345 101.632L437.332 104.616L437.351 104.641L437.37 104.665L441.345 101.632ZM436.737 88.816V83.816H431.428L431.746 89.1155L436.737 88.816ZM450.273 88.816L455.249 88.3305L454.809 83.816H450.273V88.816ZM455.745 98.464L452.707 102.436L452.735 102.457L452.763 102.478L455.745 98.464ZM480.369 82.912L477.917 87.2699L477.97 87.2994L478.023 87.3276L480.369 82.912ZM466.113 77.872L464.844 82.7084L464.864 82.7135L464.883 82.7184L466.113 77.872ZM451.713 73.264L449.671 77.8281L449.742 77.8601L449.815 77.8898L451.713 73.264ZM442.209 66.208L438.339 69.3742L438.391 69.4382L438.446 69.5005L442.209 66.208ZM441.921 42.736L437.852 39.8298L437.852 39.8298L441.921 42.736ZM452.145 34.816L454.138 39.4013L454.18 39.3833L454.221 39.3644L452.145 34.816ZM497.073 56.56V61.56H502.329L502.067 56.3103L497.073 56.56ZM483.969 56.56L478.981 56.908L479.305 61.56H483.969V56.56ZM478.929 46.624L475.716 50.455L475.746 50.48L475.776 50.5046L478.929 46.624ZM455.601 45.904L452.668 41.8543L452.668 41.8543L455.601 45.904ZM453.873 60.304L450.238 63.7371L450.336 63.841L450.44 63.9391L453.873 60.304ZM460.209 64.336L458.261 68.9408L458.365 68.9852L458.472 69.0247L460.209 64.336ZM470.865 67.648L469.532 72.4671L469.544 72.4704L469.556 72.4737L470.865 67.648ZM484.689 72.256L482.704 76.8453L482.757 76.8681L482.81 76.8897L484.689 72.256ZM493.761 78.88L489.93 82.0931L489.96 82.1288L489.99 82.1639L493.761 78.88ZM497.793 90.544H502.793V90.494L502.792 90.444L497.793 90.544ZM494.193 102.208L490.086 99.356L490.086 99.356L494.193 102.208ZM483.969 110.416L485.999 114.985L486.022 114.975L486.045 114.964L483.969 110.416ZM468.993 108.296C463.503 108.296 458.753 107.382 454.657 105.662L450.785 114.882C456.289 117.194 462.386 118.296 468.993 118.296V108.296ZM454.734 105.695C450.596 103.875 447.521 101.484 445.32 98.5986L437.37 104.665C440.736 109.076 445.245 112.445 450.707 114.849L454.734 105.695ZM445.357 98.6485C443.172 95.7099 441.959 92.3772 441.728 88.5165L431.746 89.1155C432.09 94.8548 433.95 100.066 437.332 104.616L445.357 98.6485ZM436.737 93.816H450.273V83.816H436.737V93.816ZM445.296 89.3015C445.821 94.6779 448.39 99.1342 452.707 102.436L458.782 94.4922C456.572 92.8018 455.493 90.8261 455.249 88.3305L445.296 89.3015ZM452.763 102.478C457.203 105.776 462.706 107.208 468.849 107.208V97.208C464.24 97.208 461.007 96.1443 458.726 94.4503L452.763 102.478ZM468.849 107.208C474.534 107.208 479.67 105.953 483.699 102.864L477.615 94.928C475.883 96.2555 473.148 97.208 468.849 97.208V107.208ZM483.699 102.864C487.699 99.7973 489.977 95.5976 489.977 90.544H479.977C479.977 92.2104 479.375 93.5787 477.615 94.928L483.699 102.864ZM489.977 90.544C489.977 88.0557 489.416 85.631 488.105 83.4597C486.795 81.29 484.911 79.6634 482.715 78.4964L478.023 87.3276C478.898 87.7926 479.318 88.254 479.544 88.6283C479.769 89.001 479.977 89.5763 479.977 90.544H489.977ZM482.82 78.5541C479.163 76.4968 473.896 74.6885 467.342 73.0256L464.883 82.7184C471.193 84.3195 475.431 85.8712 477.917 87.2699L482.82 78.5541ZM467.381 73.0356C461.646 71.5312 457.076 70.0599 453.611 68.6382L449.815 77.8898C453.837 79.5401 458.868 81.1408 464.844 82.7084L467.381 73.0356ZM453.755 68.6999C450.78 67.369 448.195 65.4564 445.972 62.9155L438.446 69.5005C441.599 73.1036 445.35 75.895 449.671 77.8281L453.755 68.6999ZM446.079 63.0418C444.381 60.9674 443.321 58.0462 443.321 53.824H433.321C433.321 59.7778 434.852 65.1126 438.339 69.3742L446.079 63.0418ZM443.321 53.824C443.321 50.8607 444.18 48.176 445.989 45.6422L437.852 39.8298C434.862 44.016 433.321 48.7233 433.321 53.824H443.321ZM445.989 45.6422C447.781 43.1346 450.413 41.0209 454.138 39.4013L450.151 30.2306C445.044 32.4511 440.861 35.6174 437.852 39.8298L445.989 45.6422ZM454.221 39.3644C457.886 37.6916 462.199 36.792 467.265 36.792V26.792C461.003 26.792 455.236 27.9084 450.068 30.2676L454.221 39.3644ZM467.265 36.792C475.147 36.792 480.987 38.7703 485.259 42.2796L491.606 34.5524C485.127 29.2297 476.855 26.792 467.265 26.792V36.792ZM485.259 42.2796C489.425 45.7014 491.757 50.3719 492.079 56.8097L502.067 56.3103C501.62 47.3881 498.193 39.9625 491.606 34.5524L485.259 42.2796ZM497.073 51.56H483.969V61.56H497.073V51.56ZM488.957 56.212C488.577 50.7739 486.282 46.1559 482.082 42.7434L475.776 50.5046C477.72 52.0841 478.784 54.0901 478.981 56.908L488.957 56.212ZM482.142 42.793C478.018 39.3345 472.727 37.88 466.833 37.88V47.88C471.115 47.88 473.887 48.9215 475.716 50.455L482.142 42.793ZM466.833 37.88C461.456 37.88 456.569 39.0297 452.668 41.8543L458.533 49.9537C460.201 48.7463 462.802 47.88 466.833 47.88V37.88ZM452.668 41.8543C448.667 44.7519 446.425 48.8592 446.425 53.824H456.425C456.425 52.2608 456.967 51.0881 458.533 49.9537L452.668 41.8543ZM446.425 53.824C446.425 57.5665 447.646 60.9931 450.238 63.7371L457.508 56.8709C456.835 56.1589 456.425 55.2655 456.425 53.824H446.425ZM450.44 63.9391C452.657 66.0333 455.292 67.6848 458.261 68.9408L462.157 59.7312C460.134 58.8752 458.544 57.8386 457.306 56.6689L450.44 63.9391ZM458.472 69.0247C461.256 70.0559 464.963 71.2033 469.532 72.4671L472.198 62.8289C467.743 61.5967 464.345 60.5361 461.945 59.6473L458.472 69.0247ZM469.556 72.4737C475.094 73.9756 479.453 75.4392 482.704 76.8453L486.673 67.6667C482.821 66.0008 477.963 64.3924 472.173 62.8223L469.556 72.4737ZM482.81 76.8897C485.595 78.0185 487.951 79.7343 489.93 82.0931L497.592 75.6669C494.578 72.0737 490.887 69.3735 486.567 67.6223L482.81 76.8897ZM489.99 82.1639C491.655 84.0752 492.716 86.7529 492.794 90.644L502.792 90.444C502.678 84.7351 501.05 79.6368 497.531 75.5961L489.99 82.1639ZM492.793 90.544C492.793 93.8735 491.888 96.7609 490.086 99.356L498.3 105.06C501.297 100.743 502.793 95.8545 502.793 90.544H492.793ZM490.086 99.356C488.273 101.967 485.619 104.166 481.892 105.868L486.045 114.964C491.151 112.634 495.313 109.361 498.3 105.06L490.086 99.356ZM481.938 105.847C478.371 107.432 474.093 108.296 468.993 108.296V118.296C475.22 118.296 480.926 117.24 485.999 114.985L481.938 105.847ZM571.587 35.536L569.211 39.9355L569.246 39.9541L569.28 39.9721L571.587 35.536ZM582.819 46.912L578.398 49.2476L578.415 49.28L578.433 49.3121L582.819 46.912ZM586.995 112V117H591.995V112H586.995ZM574.035 112H569.035V117H574.035V112ZM568.131 49.36L564.473 52.7686L564.493 52.7896L564.512 52.8104L568.131 49.36ZM535.443 49.504L531.828 46.0497L531.808 46.0709L531.788 46.0924L535.443 49.504ZM529.395 112V117H534.395V112H529.395ZM516.291 112H511.291V117H516.291V112ZM516.291 5.44V0.439999H511.291V5.44H516.291ZM529.395 5.44H534.395V0.439999H529.395V5.44ZM529.395 44.32H524.395V61.3441L533.601 47.0238L529.395 44.32ZM540.051 34.96L537.891 30.4509L537.872 30.4598L537.853 30.4689L540.051 34.96ZM555.459 36.648C560.659 36.648 565.206 37.7728 569.211 39.9355L573.963 31.1365C568.368 28.1152 562.163 26.648 555.459 26.648V36.648ZM569.28 39.9721C573.12 41.9686 576.153 44.998 578.398 49.2476L587.24 44.5764C584.109 38.65 579.654 34.0954 573.894 31.0999L569.28 39.9721ZM578.433 49.3121C580.723 53.498 581.995 58.8184 581.995 65.488H591.995C591.995 57.5656 590.483 50.502 587.205 44.5119L578.433 49.3121ZM581.995 65.488V112H591.995V65.488H581.995ZM586.995 107H574.035V117H586.995V107ZM579.035 112V67.36H569.035V112H579.035ZM579.035 67.36C579.035 58.6979 576.863 51.2727 571.75 45.9096L564.512 52.8104C567.271 55.7033 569.035 60.2781 569.035 67.36H579.035ZM571.789 45.9514C566.736 40.5289 559.934 38.024 552.003 38.024V48.024C557.704 48.024 561.654 49.7431 564.473 52.7686L571.789 45.9514ZM552.003 38.024C543.959 38.024 537.05 40.5855 531.828 46.0497L539.058 52.9583C542.093 49.7825 546.223 48.024 552.003 48.024V38.024ZM531.788 46.0924C526.599 51.6514 524.395 59.3511 524.395 68.368H534.395C534.395 60.8729 536.223 55.9966 539.098 52.9156L531.788 46.0924ZM524.395 68.368V112H534.395V68.368H524.395ZM529.395 107H516.291V117H529.395V107ZM521.291 112V5.44H511.291V112H521.291ZM516.291 10.44H529.395V0.439999H516.291V10.44ZM524.395 5.44V44.32H534.395V5.44H524.395ZM533.601 47.0238C535.675 43.7973 538.516 41.2779 542.249 39.4511L537.853 30.4689C532.563 33.0581 528.299 36.7787 525.189 41.6162L533.601 47.0238ZM542.212 39.4691C546.075 37.6179 550.461 36.648 555.459 36.648V26.648C549.129 26.648 543.243 27.8861 537.891 30.4509L542.212 39.4691ZM99.032 227.632L103.71 229.397L106.263 222.632H99.032V227.632ZM61.16 328V333H64.6175L65.8381 329.765L61.16 328ZM46.04 328L41.362 329.765L42.5826 333H46.04V328ZM8.168 227.632V222.632H0.937236L3.48995 229.397L8.168 227.632ZM22.136 227.632L26.8338 225.92L25.6356 222.632H22.136V227.632ZM53.672 314.176L48.9742 315.888L53.672 328.78L58.3698 315.888L53.672 314.176ZM85.208 227.632V222.632H81.7084L80.5102 225.92L85.208 227.632ZM94.354 225.867L56.482 326.235L65.8381 329.765L103.71 229.397L94.354 225.867ZM61.16 323H46.04V333H61.16V323ZM50.7181 326.235L12.8461 225.867L3.48995 229.397L41.362 329.765L50.7181 326.235ZM8.168 232.632H22.136V222.632H8.168V232.632ZM17.4382 229.344L48.9742 315.888L58.3698 312.464L26.8338 225.92L17.4382 229.344ZM58.3698 315.888L89.9058 229.344L80.5102 225.92L48.9742 312.464L58.3698 315.888ZM85.208 232.632H99.032V222.632H85.208V232.632ZM113.401 267.088L117.801 269.463L117.808 269.448L117.816 269.434L113.401 267.088ZM126.793 252.832L124.273 248.513L124.257 248.522L124.241 248.532L126.793 252.832ZM163.945 252.256L161.42 256.572L161.42 256.572L163.945 252.256ZM175.321 263.488L170.945 265.908L180.321 263.488H175.321ZM175.321 249.088V244.088H170.321V249.088H175.321ZM188.569 249.088H193.569V244.088H188.569V249.088ZM188.569 328V333H193.569V328H188.569ZM175.321 328H170.321V333H175.321V328ZM175.321 313.312H180.321V294.224L170.963 310.861L175.321 313.312ZM163.657 324.832L166.181 329.148L166.193 329.141L166.206 329.133L163.657 324.832ZM126.793 324.112L124.188 328.38L124.188 328.38L126.793 324.112ZM113.401 309.568L117.831 307.251L117.831 307.251L113.401 309.568ZM161.929 262.768L159.371 267.064L159.431 267.1L159.492 267.134L161.929 262.768ZM135.145 262.624L132.664 258.283L132.664 258.283L135.145 262.624ZM125.497 272.704L129.89 275.092L129.89 275.092L125.497 272.704ZM125.497 304.096L121.082 306.444L121.093 306.464L121.103 306.484L125.497 304.096ZM135.145 314.32L132.587 318.616L132.625 318.639L132.664 318.661L135.145 314.32ZM161.929 314.32L164.409 318.661L164.425 318.652L164.442 318.643L161.929 314.32ZM171.721 304.096L176.114 306.484L176.124 306.464L176.135 306.444L171.721 304.096ZM113.505 288.256C113.505 280.877 114.994 274.664 117.801 269.463L109 264.713C105.279 271.608 103.505 279.507 103.505 288.256H113.505ZM117.816 269.434C120.675 264.052 124.514 259.997 129.344 257.132L124.241 248.532C117.743 252.387 112.654 257.836 108.985 264.742L117.816 269.434ZM129.312 257.151C134.268 254.26 139.775 252.792 145.945 252.792V242.792C138.098 242.792 130.837 244.684 124.273 248.513L129.312 257.151ZM145.945 252.792C152.124 252.792 157.221 254.116 161.42 256.572L166.469 247.94C160.492 244.444 153.589 242.792 145.945 242.792V252.792ZM161.42 256.572C165.845 259.16 168.944 262.29 170.945 265.908L179.696 261.068C176.705 255.662 172.22 251.304 166.469 247.94L161.42 256.572ZM180.321 263.488V249.088H170.321V263.488H180.321ZM175.321 254.088H188.569V244.088H175.321V254.088ZM183.569 249.088V328H193.569V249.088H183.569ZM188.569 323H175.321V333H188.569V323ZM180.321 328V313.312H170.321V328H180.321ZM170.963 310.861C168.858 314.602 165.644 317.842 161.107 320.531L166.206 329.133C172.037 325.678 176.599 321.238 179.678 315.763L170.963 310.861ZM161.132 320.516C156.923 322.978 151.87 324.296 145.801 324.296V334.296C153.363 334.296 160.214 332.638 166.181 329.148L161.132 320.516ZM145.801 324.296C139.657 324.296 134.232 322.794 129.397 319.844L124.188 328.38C130.681 332.342 137.928 334.296 145.801 334.296V324.296ZM129.397 319.844C124.555 316.89 120.701 312.738 117.831 307.251L108.97 311.885C112.628 318.878 117.702 324.422 124.188 328.38L129.397 319.844ZM117.831 307.251C114.988 301.815 113.505 295.524 113.505 288.256H103.505C103.505 296.924 105.285 304.841 108.97 311.885L117.831 307.251ZM180.321 288.4C180.321 281.768 178.979 275.733 176.114 270.46L167.327 275.236C169.262 278.795 170.321 283.128 170.321 288.4H180.321ZM176.114 270.46C173.292 265.268 169.372 261.197 164.365 258.402L159.492 267.134C162.741 268.947 165.349 271.596 167.327 275.236L176.114 270.46ZM164.486 258.472C159.646 255.591 154.292 254.168 148.537 254.168V264.168C152.573 264.168 156.147 265.145 159.371 267.064L164.486 258.472ZM148.537 254.168C142.819 254.168 137.493 255.523 132.664 258.283L137.625 266.965C140.86 265.117 144.462 264.168 148.537 264.168V254.168ZM132.664 258.283C127.759 261.086 123.909 265.154 121.103 270.316L129.89 275.092C131.884 271.422 134.466 268.77 137.625 266.965L132.664 258.283ZM121.103 270.316C118.238 275.589 116.897 281.624 116.897 288.256H126.897C126.897 282.984 127.955 278.651 129.89 275.092L121.103 270.316ZM116.897 288.256C116.897 294.973 118.233 301.087 121.082 306.444L129.911 301.748C127.96 298.081 126.897 293.635 126.897 288.256H116.897ZM121.103 306.484C123.901 311.631 127.728 315.724 132.587 318.616L137.702 310.024C134.497 308.116 131.892 305.393 129.89 301.708L121.103 306.484ZM132.664 318.661C137.493 321.421 142.819 322.776 148.537 322.776V312.776C144.462 312.776 140.86 311.827 137.625 309.979L132.664 318.661ZM148.537 322.776C154.254 322.776 159.58 321.421 164.409 318.661L159.448 309.979C156.213 311.827 152.611 312.776 148.537 312.776V322.776ZM164.442 318.643C169.404 315.757 173.3 311.66 176.114 306.484L167.327 301.708C165.341 305.364 162.709 308.083 159.415 309.997L164.442 318.643ZM176.135 306.444C178.978 301.098 180.321 295.036 180.321 288.4H170.321C170.321 293.668 169.263 298.07 167.306 301.748L176.135 306.444ZM222.377 326.272L220.363 330.849L220.402 330.866L220.441 330.882L222.377 326.272ZM211.001 317.632L206.989 320.616L207.007 320.641L207.026 320.665L211.001 317.632ZM206.393 304.816V299.816H201.084L201.402 305.115L206.393 304.816ZM219.929 304.816L224.905 304.33L224.465 299.816H219.929V304.816ZM225.401 314.464L222.364 318.436L222.391 318.457L222.419 318.478L225.401 314.464ZM250.025 298.912L247.574 303.27L247.626 303.299L247.679 303.328L250.025 298.912ZM235.769 293.872L234.5 298.708L234.52 298.713L234.539 298.718L235.769 293.872ZM221.369 289.264L219.327 293.828L219.399 293.86L219.471 293.89L221.369 289.264ZM211.865 282.208L207.995 285.374L208.048 285.438L208.102 285.501L211.865 282.208ZM211.577 258.736L207.508 255.83L207.508 255.83L211.577 258.736ZM221.801 250.816L223.795 255.401L223.836 255.383L223.877 255.364L221.801 250.816ZM266.729 272.56V277.56H271.985L271.723 272.31L266.729 272.56ZM253.625 272.56L248.637 272.908L248.962 277.56H253.625V272.56ZM248.585 262.624L245.372 266.455L245.402 266.48L245.432 266.505L248.585 262.624ZM225.257 261.904L222.324 257.854L222.324 257.854L225.257 261.904ZM223.529 276.304L219.894 279.737L219.992 279.841L220.096 279.939L223.529 276.304ZM229.865 280.336L227.917 284.941L228.022 284.985L228.128 285.025L229.865 280.336ZM240.521 283.648L239.188 288.467L239.2 288.47L239.212 288.474L240.521 283.648ZM254.345 288.256L252.36 292.845L252.413 292.868L252.466 292.89L254.345 288.256ZM263.417 294.88L259.586 298.093L259.616 298.129L259.647 298.164L263.417 294.88ZM267.449 306.544H272.449V306.494L272.448 306.444L267.449 306.544ZM263.849 318.208L259.742 315.356L259.742 315.356L263.849 318.208ZM253.625 326.416L255.656 330.985L255.679 330.975L255.701 330.964L253.625 326.416ZM238.649 324.296C233.16 324.296 228.409 323.382 224.313 321.662L220.441 330.882C225.945 333.194 232.042 334.296 238.649 334.296V324.296ZM224.391 321.695C220.253 319.875 217.178 317.484 214.976 314.599L207.026 320.665C210.392 325.076 214.901 328.445 220.363 330.849L224.391 321.695ZM215.013 314.648C212.828 311.71 211.616 308.377 211.384 304.517L201.402 305.115C201.746 310.855 203.606 316.066 206.989 320.616L215.013 314.648ZM206.393 309.816H219.929V299.816H206.393V309.816ZM214.953 305.301C215.477 310.678 218.046 315.134 222.364 318.436L228.438 310.492C226.228 308.802 225.149 306.826 224.905 304.33L214.953 305.301ZM222.419 318.478C226.859 321.776 232.362 323.208 238.505 323.208V313.208C233.896 313.208 230.663 312.144 228.383 310.45L222.419 318.478ZM238.505 323.208C244.19 323.208 249.327 321.953 253.355 318.864L247.271 310.928C245.539 312.255 242.804 313.208 238.505 313.208V323.208ZM253.355 318.864C257.355 315.797 259.633 311.598 259.633 306.544H249.633C249.633 308.21 249.031 309.579 247.271 310.928L253.355 318.864ZM259.633 306.544C259.633 304.056 259.072 301.631 257.761 299.46C256.451 297.29 254.568 295.663 252.371 294.496L247.679 303.328C248.554 303.793 248.975 304.254 249.201 304.628C249.426 305.001 249.633 305.576 249.633 306.544H259.633ZM252.476 294.554C248.819 292.497 243.552 290.688 236.999 289.026L234.539 298.718C240.85 300.32 245.087 301.871 247.574 303.27L252.476 294.554ZM237.038 289.036C231.302 287.531 226.732 286.06 223.267 284.638L219.471 293.89C223.494 295.54 228.524 297.141 234.5 298.708L237.038 289.036ZM223.411 284.7C220.436 283.369 217.851 281.456 215.628 278.915L208.102 285.501C211.255 289.104 215.006 291.895 219.327 293.828L223.411 284.7ZM215.735 279.042C214.038 276.967 212.977 274.046 212.977 269.824H202.977C202.977 275.778 204.508 281.113 207.995 285.374L215.735 279.042ZM212.977 269.824C212.977 266.861 213.836 264.176 215.646 261.642L207.508 255.83C204.518 260.016 202.977 264.723 202.977 269.824H212.977ZM215.646 261.642C217.437 259.135 220.07 257.021 223.795 255.401L219.807 246.231C214.7 248.451 210.517 251.617 207.508 255.83L215.646 261.642ZM223.877 255.364C227.542 253.692 231.855 252.792 236.921 252.792V242.792C230.659 242.792 224.892 243.908 219.725 246.268L223.877 255.364ZM236.921 252.792C244.803 252.792 250.643 254.77 254.915 258.28L261.263 250.552C254.783 245.23 246.511 242.792 236.921 242.792V252.792ZM254.915 258.28C259.081 261.701 261.413 266.372 261.735 272.81L271.723 272.31C271.277 263.388 267.849 255.963 261.263 250.552L254.915 258.28ZM266.729 267.56H253.625V277.56H266.729V267.56ZM258.613 272.212C258.233 266.774 255.938 262.156 251.738 258.743L245.432 266.505C247.376 268.084 248.441 270.09 248.637 272.908L258.613 272.212ZM251.798 258.793C247.674 255.335 242.383 253.88 236.489 253.88V263.88C240.771 263.88 243.544 264.921 245.372 266.455L251.798 258.793ZM236.489 253.88C231.112 253.88 226.225 255.03 222.324 257.854L228.19 265.954C229.857 264.746 232.458 263.88 236.489 263.88V253.88ZM222.324 257.854C218.323 260.752 216.081 264.859 216.081 269.824H226.081C226.081 268.261 226.623 267.088 228.19 265.954L222.324 257.854ZM216.081 269.824C216.081 273.566 217.302 276.993 219.894 279.737L227.164 272.871C226.492 272.159 226.081 271.265 226.081 269.824H216.081ZM220.096 279.939C222.313 282.033 224.948 283.685 227.917 284.941L231.813 275.731C229.79 274.875 228.201 273.839 226.962 272.669L220.096 279.939ZM228.128 285.025C230.913 286.056 234.619 287.203 239.188 288.467L241.854 278.829C237.399 277.597 234.001 276.536 231.602 275.647L228.128 285.025ZM239.212 288.474C244.75 289.976 249.109 291.439 252.36 292.845L256.33 283.667C252.477 282.001 247.62 280.392 241.83 278.822L239.212 288.474ZM252.466 292.89C255.251 294.019 257.608 295.734 259.586 298.093L267.248 291.667C264.234 288.074 260.543 285.373 256.224 283.622L252.466 292.89ZM259.647 298.164C261.311 300.075 262.372 302.753 262.45 306.644L272.448 306.444C272.334 300.735 270.707 295.637 267.187 291.596L259.647 298.164ZM262.449 306.544C262.449 309.874 261.544 312.761 259.742 315.356L267.956 321.06C270.954 316.743 272.449 311.854 272.449 306.544H262.449ZM259.742 315.356C257.929 317.967 255.275 320.166 251.549 321.868L255.701 330.964C260.807 328.634 264.969 325.361 267.956 321.06L259.742 315.356ZM251.594 321.847C248.027 323.432 243.75 324.296 238.649 324.296V334.296C244.876 334.296 250.583 333.24 255.656 330.985L251.594 321.847ZM341.243 251.536L338.868 255.936L338.902 255.954L338.937 255.972L341.243 251.536ZM352.475 262.912L348.054 265.248L348.072 265.28L348.089 265.312L352.475 262.912ZM356.651 328V333H361.651V328H356.651ZM343.691 328H338.691V333H343.691V328ZM337.787 265.36L334.129 268.769L334.149 268.79L334.169 268.81L337.787 265.36ZM305.099 265.504L301.484 262.05L301.464 262.071L301.444 262.092L305.099 265.504ZM299.051 328V333H304.051V328H299.051ZM285.947 328H280.947V333H285.947V328ZM285.947 221.44V216.44H280.947V221.44H285.947ZM299.051 221.44H304.051V216.44H299.051V221.44ZM299.051 260.32H294.051V277.344L303.257 263.024L299.051 260.32ZM309.707 250.96L307.547 246.451L307.528 246.46L307.51 246.469L309.707 250.96ZM325.115 252.648C330.315 252.648 334.863 253.773 338.868 255.936L343.619 247.136C338.024 244.115 331.819 242.648 325.115 242.648V252.648ZM338.937 255.972C342.776 257.969 345.809 260.998 348.054 265.248L356.896 260.576C353.765 254.65 349.311 250.095 343.55 247.1L338.937 255.972ZM348.089 265.312C350.379 269.498 351.651 274.818 351.651 281.488H361.651C361.651 273.566 360.139 266.502 356.862 260.512L348.089 265.312ZM351.651 281.488V328H361.651V281.488H351.651ZM356.651 323H343.691V333H356.651V323ZM348.691 328V283.36H338.691V328H348.691ZM348.691 283.36C348.691 274.698 346.52 267.273 341.406 261.91L334.169 268.81C336.927 271.703 338.691 276.278 338.691 283.36H348.691ZM341.445 261.951C336.393 256.529 329.59 254.024 321.659 254.024V264.024C327.361 264.024 331.31 265.743 334.129 268.769L341.445 261.951ZM321.659 254.024C313.615 254.024 306.706 256.586 301.484 262.05L308.714 268.958C311.749 265.782 315.879 264.024 321.659 264.024V254.024ZM301.444 262.092C296.256 267.651 294.051 275.351 294.051 284.368H304.051C304.051 276.873 305.879 271.997 308.755 268.916L301.444 262.092ZM294.051 284.368V328H304.051V284.368H294.051ZM299.051 323H285.947V333H299.051V323ZM290.947 328V221.44H280.947V328H290.947ZM285.947 226.44H299.051V216.44H285.947V226.44ZM294.051 221.44V260.32H304.051V221.44H294.051ZM303.257 263.024C305.331 259.797 308.172 257.278 311.905 255.451L307.51 246.469C302.219 249.058 297.955 252.779 294.845 257.616L303.257 263.024ZM311.868 255.469C315.731 253.618 320.117 252.648 325.115 252.648V242.648C318.785 242.648 312.899 243.886 307.547 246.451L311.868 255.469ZM378.489 233.68L382.024 230.144L382.024 230.144L378.489 233.68ZM378.489 221.008L382.024 224.544L382.024 224.544L378.489 221.008ZM390.873 221.008L387.238 224.441L387.287 224.493L387.337 224.544L390.873 221.008ZM390.873 233.68L387.337 230.144L387.287 230.195L387.238 230.247L390.873 233.68ZM391.161 249.088H396.161V244.088H391.161V249.088ZM391.161 328V333H396.161V328H391.161ZM378.057 328H373.057V333H378.057V328ZM378.057 249.088V244.088H373.057V249.088H378.057ZM384.825 231.272C383.623 231.272 382.792 230.913 382.024 230.144L374.953 237.216C377.641 239.903 381.034 241.272 384.825 241.272V231.272ZM382.024 230.144C381.256 229.376 380.897 228.546 380.897 227.344H370.897C370.897 231.134 372.265 234.528 374.953 237.216L382.024 230.144ZM380.897 227.344C380.897 226.142 381.256 225.312 382.024 224.544L374.953 217.472C372.265 220.16 370.897 223.554 370.897 227.344H380.897ZM382.024 224.544C382.792 223.775 383.623 223.416 384.825 223.416V213.416C381.034 213.416 377.641 214.785 374.953 217.472L382.024 224.544ZM384.825 223.416C385.864 223.416 386.561 223.724 387.238 224.441L394.508 217.575C391.921 214.836 388.585 213.416 384.825 213.416V223.416ZM387.337 224.544C388.105 225.312 388.465 226.142 388.465 227.344H398.465C398.465 223.554 397.096 220.16 394.408 217.472L387.337 224.544ZM388.465 227.344C388.465 228.546 388.105 229.376 387.337 230.144L394.408 237.216C397.096 234.528 398.465 231.134 398.465 227.344H388.465ZM387.238 230.247C386.561 230.964 385.864 231.272 384.825 231.272V241.272C388.585 241.272 391.921 239.852 394.508 237.113L387.238 230.247ZM386.161 249.088V328H396.161V249.088H386.161ZM391.161 323H378.057V333H391.161V323ZM383.057 328V249.088H373.057V328H383.057ZM378.057 254.088H391.161V244.088H378.057V254.088ZM425.158 326.272L423.145 330.849L423.183 330.866L423.222 330.882L425.158 326.272ZM413.782 317.632L409.77 320.616L409.789 320.641L409.807 320.665L413.782 317.632ZM409.174 304.816V299.816H403.865L404.183 305.115L409.174 304.816ZM422.71 304.816L427.687 304.33L427.246 299.816H422.71V304.816ZM428.182 314.464L425.145 318.436L425.173 318.457L425.201 318.478L428.182 314.464ZM452.806 298.912L450.355 303.27L450.407 303.299L450.46 303.328L452.806 298.912ZM438.55 293.872L437.282 298.708L437.301 298.713L437.321 298.718L438.55 293.872ZM424.15 289.264L422.108 293.828L422.18 293.86L422.252 293.89L424.15 289.264ZM414.646 282.208L410.776 285.374L410.829 285.438L410.883 285.501L414.646 282.208ZM414.358 258.736L410.29 255.83L410.29 255.83L414.358 258.736ZM424.582 250.816L426.576 255.401L426.617 255.383L426.659 255.364L424.582 250.816ZM469.51 272.56V277.56H474.766L474.504 272.31L469.51 272.56ZM456.406 272.56L451.418 272.908L451.743 277.56H456.406V272.56ZM451.366 262.624L448.153 266.455L448.183 266.48L448.213 266.505L451.366 262.624ZM428.038 261.904L425.106 257.854L425.106 257.854L428.038 261.904ZM426.31 276.304L422.675 279.737L422.773 279.841L422.877 279.939L426.31 276.304ZM432.646 280.336L430.698 284.941L430.803 284.985L430.91 285.025L432.646 280.336ZM443.302 283.648L441.969 288.467L441.981 288.47L441.994 288.474L443.302 283.648ZM457.126 288.256L455.142 292.845L455.194 292.868L455.248 292.89L457.126 288.256ZM466.198 294.88L462.367 298.093L462.397 298.129L462.428 298.164L466.198 294.88ZM470.23 306.544H475.23V306.494L475.229 306.444L470.23 306.544ZM466.63 318.208L462.523 315.356L462.523 315.356L466.63 318.208ZM456.406 326.416L458.437 330.985L458.46 330.975L458.483 330.964L456.406 326.416ZM441.43 324.296C435.941 324.296 431.19 323.382 427.094 321.662L423.222 330.882C428.726 333.194 434.824 334.296 441.43 334.296V324.296ZM427.172 321.695C423.034 319.875 419.959 317.484 417.757 314.599L409.807 320.665C413.174 325.076 417.683 328.445 423.145 330.849L427.172 321.695ZM417.795 314.648C415.609 311.71 414.397 308.377 414.165 304.517L404.183 305.115C404.528 310.855 406.387 316.066 409.77 320.616L417.795 314.648ZM409.174 309.816H422.71V299.816H409.174V309.816ZM417.734 305.301C418.258 310.678 420.827 315.134 425.145 318.436L431.22 310.492C429.009 308.802 427.93 306.826 427.687 304.33L417.734 305.301ZM425.201 318.478C429.64 321.776 435.143 323.208 441.286 323.208V313.208C436.677 313.208 433.444 312.144 431.164 310.45L425.201 318.478ZM441.286 323.208C446.971 323.208 452.108 321.953 456.136 318.864L450.052 310.928C448.321 312.255 445.585 313.208 441.286 313.208V323.208ZM456.136 318.864C460.136 315.797 462.414 311.598 462.414 306.544H452.414C452.414 308.21 451.812 309.579 450.052 310.928L456.136 318.864ZM462.414 306.544C462.414 304.056 461.854 301.631 460.543 299.46C459.233 297.29 457.349 295.663 455.152 294.496L450.46 303.328C451.336 303.793 451.756 304.254 451.982 304.628C452.207 305.001 452.414 305.576 452.414 306.544H462.414ZM455.258 294.554C451.6 292.497 446.334 290.688 439.78 289.026L437.321 298.718C443.631 300.32 447.868 301.871 450.355 303.27L455.258 294.554ZM439.819 289.036C434.083 287.531 429.514 286.06 426.048 284.638L422.252 293.89C426.275 295.54 431.305 297.141 437.282 298.708L439.819 289.036ZM426.192 284.7C423.217 283.369 420.632 281.456 418.409 278.915L410.883 285.501C414.036 289.104 417.787 291.895 422.108 293.828L426.192 284.7ZM418.516 279.042C416.819 276.967 415.758 274.046 415.758 269.824H405.758C405.758 275.778 407.29 281.113 410.776 285.374L418.516 279.042ZM415.758 269.824C415.758 266.861 416.617 264.176 418.427 261.642L410.29 255.83C407.299 260.016 405.758 264.723 405.758 269.824H415.758ZM418.427 261.642C420.218 259.135 422.851 257.021 426.576 255.401L422.589 246.231C417.482 248.451 413.298 251.617 410.29 255.83L418.427 261.642ZM426.659 255.364C430.323 253.692 434.636 252.792 439.702 252.792V242.792C433.44 242.792 427.673 243.908 422.506 246.268L426.659 255.364ZM439.702 252.792C447.584 252.792 453.424 254.77 457.697 258.28L464.044 250.552C457.564 245.23 449.292 242.792 439.702 242.792V252.792ZM457.697 258.28C461.862 261.701 464.195 266.372 464.516 272.81L474.504 272.31C474.058 263.388 470.63 255.963 464.044 250.552L457.697 258.28ZM469.51 267.56H456.406V277.56H469.51V267.56ZM461.394 272.212C461.015 266.774 458.719 262.156 454.519 258.743L448.213 266.505C450.157 268.084 451.222 270.09 451.418 272.908L461.394 272.212ZM454.579 258.793C450.456 255.335 445.164 253.88 439.27 253.88V263.88C443.552 263.88 446.325 264.921 448.153 266.455L454.579 258.793ZM439.27 253.88C433.893 253.88 429.006 255.03 425.106 257.854L430.971 265.954C432.638 264.746 435.239 263.88 439.27 263.88V253.88ZM425.106 257.854C421.104 260.752 418.862 264.859 418.862 269.824H428.862C428.862 268.261 429.404 267.088 430.971 265.954L425.106 257.854ZM418.862 269.824C418.862 273.566 420.084 276.993 422.675 279.737L429.945 272.871C429.273 272.159 428.862 271.265 428.862 269.824H418.862ZM422.877 279.939C425.095 282.033 427.729 283.685 430.698 284.941L434.594 275.731C432.571 274.875 430.982 273.839 429.743 272.669L422.877 279.939ZM430.91 285.025C433.694 286.056 437.4 287.203 441.969 288.467L444.635 278.829C440.18 277.597 436.783 276.536 434.383 275.647L430.91 285.025ZM441.994 288.474C447.532 289.976 451.89 291.439 455.142 292.845L459.111 283.667C455.258 282.001 450.401 280.392 444.611 278.822L441.994 288.474ZM455.248 292.89C458.032 294.019 460.389 295.734 462.367 298.093L470.029 291.667C467.016 288.074 463.324 285.373 459.005 283.622L455.248 292.89ZM462.428 298.164C464.093 300.075 465.153 302.753 465.231 306.644L475.229 306.444C475.115 300.735 473.488 295.637 469.969 291.596L462.428 298.164ZM465.23 306.544C465.23 309.874 464.326 312.761 462.523 315.356L470.737 321.06C473.735 316.743 475.23 311.854 475.23 306.544H465.23ZM462.523 315.356C460.71 317.967 458.056 320.166 454.33 321.868L458.483 330.964C463.588 328.634 467.75 325.361 470.737 321.06L462.523 315.356ZM454.376 321.847C450.809 323.432 446.531 324.296 441.43 324.296V334.296C447.658 334.296 453.364 333.24 458.437 330.985L454.376 321.847ZM504.713 259.888V254.888H499.713V259.888H504.713ZM507.161 314.608L503.625 318.144L503.679 318.197L503.734 318.249L507.161 314.608ZM525.305 316.912H530.305V311.912H525.305V316.912ZM525.305 328V333H530.305V328H525.305ZM491.609 259.888H496.609V254.888H491.609V259.888ZM481.385 259.888H476.385V264.888H481.385V259.888ZM481.385 249.088V244.088H476.385V249.088H481.385ZM491.609 249.088V254.088H496.609V249.088H491.609ZM491.609 229.216V224.216H486.609V229.216H491.609ZM504.713 229.216H509.713V224.216H504.713V229.216ZM504.713 249.088H499.713V254.088H504.713V249.088ZM525.305 249.088H530.305V244.088H525.305V249.088ZM525.305 259.888V264.888H530.305V259.888H525.305ZM499.713 259.888V306.4H509.713V259.888H499.713ZM499.713 306.4C499.713 310.733 500.597 315.115 503.625 318.144L510.696 311.072C510.461 310.837 509.713 309.747 509.713 306.4H499.713ZM503.734 318.249C506.797 321.132 511.273 321.912 515.657 321.912V311.912C511.977 311.912 510.788 311.156 510.587 310.967L503.734 318.249ZM515.657 321.912H525.305V311.912H515.657V321.912ZM520.305 316.912V328H530.305V316.912H520.305ZM525.305 323H513.497V333H525.305V323ZM513.497 323C506.874 323 502.839 321.466 500.468 319.282L493.693 326.638C498.618 331.174 505.527 333 513.497 333V323ZM500.468 319.282C498.297 317.283 496.609 313.44 496.609 306.4H486.609C486.609 314.72 488.568 321.917 493.693 326.638L500.468 319.282ZM496.609 306.4V259.888H486.609V306.4H496.609ZM491.609 254.888H481.385V264.888H491.609V254.888ZM486.385 259.888V249.088H476.385V259.888H486.385ZM481.385 254.088H491.609V244.088H481.385V254.088ZM496.609 249.088V229.216H486.609V249.088H496.609ZM491.609 234.216H504.713V224.216H491.609V234.216ZM499.713 229.216V249.088H509.713V229.216H499.713ZM504.713 254.088H525.305V244.088H504.713V254.088ZM520.305 249.088V259.888H530.305V249.088H520.305ZM525.305 254.888H504.713V264.888H525.305V254.888ZM596.478 251.536L594.102 255.936L594.136 255.954L594.171 255.972L596.478 251.536ZM607.71 262.912L603.289 265.248L603.306 265.28L603.323 265.312L607.71 262.912ZM611.886 328V333H616.886V328H611.886ZM598.926 328H593.926V333H598.926V328ZM593.022 265.36L589.364 268.769L589.383 268.79L589.403 268.81L593.022 265.36ZM560.334 265.504L556.719 262.05L556.699 262.071L556.678 262.092L560.334 265.504ZM554.286 328V333H559.286V328H554.286ZM541.182 328H536.182V333H541.182V328ZM541.182 221.44V216.44H536.182V221.44H541.182ZM554.286 221.44H559.286V216.44H554.286V221.44ZM554.286 260.32H549.286V277.344L558.492 263.024L554.286 260.32ZM564.942 250.96L562.781 246.451L562.763 246.46L562.744 246.469L564.942 250.96ZM580.35 252.648C585.55 252.648 590.097 253.773 594.102 255.936L598.853 247.136C593.258 244.115 587.054 242.648 580.35 242.648V252.648ZM594.171 255.972C598.01 257.969 601.044 260.998 603.289 265.248L612.131 260.576C609 254.65 604.545 250.095 598.785 247.1L594.171 255.972ZM603.323 265.312C605.614 269.498 606.886 274.818 606.886 281.488H616.886C616.886 273.566 615.374 266.502 612.096 260.512L603.323 265.312ZM606.886 281.488V328H616.886V281.488H606.886ZM611.886 323H598.926V333H611.886V323ZM603.926 328V283.36H593.926V328H603.926ZM603.926 283.36C603.926 274.698 601.754 267.273 596.64 261.91L589.403 268.81C592.161 271.703 593.926 276.278 593.926 283.36H603.926ZM596.68 261.951C591.627 256.529 584.825 254.024 576.894 254.024V264.024C582.595 264.024 586.545 265.743 589.364 268.769L596.68 261.951ZM576.894 254.024C568.85 254.024 561.94 256.586 556.719 262.05L563.949 268.958C566.983 265.782 571.114 264.024 576.894 264.024V254.024ZM556.678 262.092C551.49 267.651 549.286 275.351 549.286 284.368H559.286C559.286 276.873 561.113 271.997 563.989 268.916L556.678 262.092ZM549.286 284.368V328H559.286V284.368H549.286ZM554.286 323H541.182V333H554.286V323ZM546.182 328V221.44H536.182V328H546.182ZM541.182 226.44H554.286V216.44H541.182V226.44ZM549.286 221.44V260.32H559.286V221.44H549.286ZM558.492 263.024C560.566 259.797 563.406 257.278 567.14 255.451L562.744 246.469C557.453 249.058 553.19 252.779 550.08 257.616L558.492 263.024ZM567.102 255.469C570.966 253.618 575.352 252.648 580.35 252.648V242.648C574.02 242.648 568.134 243.886 562.781 246.451L567.102 255.469ZM633.291 267.088L637.691 269.463L637.699 269.448L637.707 269.434L633.291 267.088ZM646.683 252.832L644.164 248.513L644.148 248.522L644.132 248.532L646.683 252.832ZM683.835 252.256L681.311 256.572L681.311 256.572L683.835 252.256ZM695.211 263.488L690.836 265.908L700.211 263.488H695.211ZM695.211 249.088V244.088H690.211V249.088H695.211ZM708.459 249.088H713.459V244.088H708.459V249.088ZM708.459 328V333H713.459V328H708.459ZM695.211 328H690.211V333H695.211V328ZM695.211 313.312H700.211V294.224L690.853 310.861L695.211 313.312ZM683.547 324.832L686.072 329.148L686.084 329.141L686.096 329.133L683.547 324.832ZM646.683 324.112L644.079 328.38L644.079 328.38L646.683 324.112ZM633.291 309.568L637.722 307.251L637.722 307.251L633.291 309.568ZM681.819 262.768L679.262 267.064L679.322 267.1L679.382 267.134L681.819 262.768ZM655.035 262.624L652.554 258.283L652.554 258.283L655.035 262.624ZM645.387 272.704L649.78 275.092L649.78 275.092L645.387 272.704ZM645.387 304.096L640.973 306.444L640.983 306.464L640.994 306.484L645.387 304.096ZM655.035 314.32L652.478 318.616L652.516 318.639L652.554 318.661L655.035 314.32ZM681.819 314.32L684.3 318.661L684.316 318.652L684.332 318.643L681.819 314.32ZM691.611 304.096L696.004 306.484L696.015 306.464L696.025 306.444L691.611 304.096ZM633.395 288.256C633.395 280.877 634.884 274.664 637.691 269.463L628.891 264.713C625.17 271.608 623.395 279.507 623.395 288.256H633.395ZM637.707 269.434C640.566 264.052 644.404 259.997 649.234 257.132L644.132 248.532C637.634 252.387 632.545 257.836 628.876 264.742L637.707 269.434ZM649.202 257.151C654.158 254.26 659.665 252.792 665.835 252.792V242.792C657.989 242.792 650.728 244.684 644.164 248.513L649.202 257.151ZM665.835 252.792C672.014 252.792 677.112 254.116 681.311 256.572L686.36 247.94C680.382 244.444 673.48 242.792 665.835 242.792V252.792ZM681.311 256.572C685.736 259.16 688.835 262.29 690.836 265.908L699.586 261.068C696.596 255.662 692.111 251.304 686.36 247.94L681.311 256.572ZM700.211 263.488V249.088H690.211V263.488H700.211ZM695.211 254.088H708.459V244.088H695.211V254.088ZM703.459 249.088V328H713.459V249.088H703.459ZM708.459 323H695.211V333H708.459V323ZM700.211 328V313.312H690.211V328H700.211ZM690.853 310.861C688.749 314.602 685.535 317.842 680.998 320.531L686.096 329.133C691.928 325.678 696.49 321.238 699.569 315.763L690.853 310.861ZM681.023 320.516C676.813 322.978 671.76 324.296 665.691 324.296V334.296C673.254 334.296 680.105 332.638 686.072 329.148L681.023 320.516ZM665.691 324.296C659.548 324.296 654.122 322.794 649.287 319.844L644.079 328.38C650.572 332.342 657.818 334.296 665.691 334.296V324.296ZM649.287 319.844C644.446 316.89 640.592 312.738 637.722 307.251L628.861 311.885C632.518 318.878 637.592 324.422 644.079 328.38L649.287 319.844ZM637.722 307.251C634.878 301.815 633.395 295.524 633.395 288.256H623.395C623.395 296.924 625.176 304.841 628.861 311.885L637.722 307.251ZM700.211 288.4C700.211 281.768 698.87 275.733 696.004 270.46L687.218 275.236C689.152 278.795 690.211 283.128 690.211 288.4H700.211ZM696.004 270.46C693.182 265.268 689.263 261.197 684.256 258.402L679.382 267.134C682.631 268.947 685.24 271.596 687.218 275.236L696.004 270.46ZM684.377 258.472C679.537 255.591 674.183 254.168 668.427 254.168V264.168C672.464 264.168 676.038 265.145 679.262 267.064L684.377 258.472ZM668.427 254.168C662.71 254.168 657.383 255.523 652.554 258.283L657.516 266.965C660.751 265.117 664.352 264.168 668.427 264.168V254.168ZM652.554 258.283C647.65 261.086 643.8 265.154 640.994 270.316L649.78 275.092C651.775 271.422 654.357 268.77 657.516 266.965L652.554 258.283ZM640.994 270.316C638.128 275.589 636.787 281.624 636.787 288.256H646.787C646.787 282.984 647.846 278.651 649.78 275.092L640.994 270.316ZM636.787 288.256C636.787 294.973 638.123 301.087 640.973 306.444L649.801 301.748C647.851 298.081 646.787 293.635 646.787 288.256H636.787ZM640.994 306.484C643.792 311.631 647.618 315.724 652.478 318.616L657.593 310.024C654.388 308.116 651.783 305.393 649.78 301.708L640.994 306.484ZM652.554 318.661C657.383 321.421 662.71 322.776 668.427 322.776V312.776C664.352 312.776 660.751 311.827 657.516 309.979L652.554 318.661ZM668.427 322.776C674.144 322.776 679.471 321.421 684.3 318.661L679.338 309.979C676.103 311.827 672.502 312.776 668.427 312.776V322.776ZM684.332 318.643C689.295 315.757 693.191 311.66 696.004 306.484L687.218 301.708C685.232 305.364 682.599 308.083 679.306 309.997L684.332 318.643ZM696.025 306.444C698.869 301.098 700.211 295.036 700.211 288.4H690.211C690.211 293.668 689.153 298.07 687.197 301.748L696.025 306.444Z" fill="white"/>
</svg>
